<?xml version="1.0" encoding="utf-8"?>
<!-- Generator: Adobe Illustrator 23.0.1, SVG Export Plug-In . SVG Version: 6.00 Build 0)  -->
<svg version="1.1" id="图层_1" xmlns="http://www.w3.org/2000/svg" xmlns:xlink="http://www.w3.org/1999/xlink" x="0px" y="0px"
	 viewBox="0 0 1227.07 722.99" style="enable-background:new 0 0 1227.07 722.99;" xml:space="preserve">
<style type="text/css">
	.st0{fill:#FFFFFF;}
</style>
<rect x="-3548.9" y="1092.02" width="4597.55" height="722.99"/>
<g>
	<path id="XMLID_24_" class="st0" d="M-3007.31,1421.74l-14.52-8.54c0-1.71,0-2.56,0-4.27l11.96-11.1c0.85-0.85,1.71-2.56,1.71-4.27
		c0-1.71-1.71-3.42-3.42-3.42l-15.37-5.98c0-1.71-0.85-2.56-0.85-4.27l9.39-13.66c0.85-1.71,0.85-3.42,0.85-5.12
		c-0.85-1.71-1.71-2.56-3.42-2.56l-16.22-2.56c-0.85-0.85-1.71-2.56-1.71-3.42l6.83-15.37c0.85-1.71,0.85-3.42,0-5.12
		c-0.85-1.71-2.56-2.56-4.27-2.56l-17.08,0.85c-0.85-0.85-1.71-2.56-2.56-3.42l3.42-16.22c0-1.71,0-3.42-1.71-4.27
		c-0.85-0.85-2.56-1.71-4.27-1.71l-16.22,3.42c-0.85-0.85-1.71-1.71-3.42-2.56l0.85-17.08c0-1.71-0.85-3.42-2.56-4.27
		c-1.71-0.85-3.42-0.85-5.12,0l-15.37,6.83c-0.85-0.85-2.56-1.71-3.42-1.71l-2.56-16.22c0-1.71-1.71-3.42-2.56-3.42
		c-1.71-0.85-3.42-0.85-5.12,0.85l-13.66,9.39c-1.71-0.85-2.56-0.85-4.27-0.85l-5.98-15.37c-0.85-1.71-1.71-2.56-3.42-3.42
		c-1.71,0-3.42,0-4.27,1.71l-11.1,11.96c-1.71,0-2.56,0-4.27,0l-8.54-14.52c-0.85-1.71-2.56-2.56-4.27-2.56s-3.42,0.85-4.27,2.56
		l-8.54,14.52c-1.71,0-2.56,0-4.27,0l-11.1-11.96c-0.85-0.85-2.56-1.71-4.27-1.71c-1.71,0-3.42,1.71-3.42,3.42l-5.98,15.37
		c-1.71,0-2.56,0.85-4.27,0.85l-13.66-9.39c-1.71-0.85-3.42-0.85-5.12-0.85c-1.71,0.85-2.56,1.71-2.56,3.42l-2.56,16.22
		c-0.85,0.85-2.56,1.71-3.42,1.71l-15.37-6.83c-1.71-0.85-3.42-0.85-5.12,0c-1.71,0.85-2.56,2.56-2.56,4.27l0.85,17.08
		c-0.85,0.85-2.56,1.71-3.42,2.56l-16.22-3.42c-1.71,0-3.42,0-4.27,1.71c-0.85,0.85-1.71,2.56-1.71,4.27l4.27,16.22
		c-0.85,0.85-1.71,1.71-2.56,3.42l-17.08-0.85c-1.71,0-3.42,0.85-4.27,2.56s-0.85,3.42,0,5.12l6.83,15.37
		c-0.85,0.85-1.71,2.56-1.71,3.42l-16.22,2.56c-1.71,0-3.42,1.71-3.42,2.56c-0.85,1.71-0.85,3.42,0.85,5.12l9.39,13.66
		c0,1.71-0.85,2.56-0.85,4.27l-15.37,5.98c-1.71,0.85-2.56,1.71-3.42,3.42c0,1.71,0,3.42,1.71,4.27l11.96,11.1c0,1.71,0,2.56,0,4.27
		l-14.52,8.54c-1.71,0.85-2.56,2.56-2.56,4.27c0,1.71,0.85,3.42,2.56,4.27l14.52,8.54c0,1.71,0,2.56,0,4.27l-11.96,11.1
		c-0.85,0.85-1.71,2.56-1.71,4.27c0,1.71,1.71,3.42,3.42,3.42l15.37,5.98c0,1.71,0.85,2.56,0.85,4.27l-9.39,13.66
		c-0.85,1.71-0.85,3.42-0.85,5.12c0.85,1.71,1.71,2.56,3.42,2.56l16.22,2.56c0.85,0.85,1.71,2.56,1.71,3.42l-6.83,15.37
		c-0.85,1.71-0.85,3.42,0,5.12c0.85,1.71,2.56,2.56,4.27,2.56l17.08-0.85c0.85,0.85,1.71,2.56,2.56,3.42l-3.42,16.22
		c0,1.71,0,3.42,1.71,4.27c0.85,0.85,2.56,1.71,4.27,1.71l16.23-3.42c0.85,0.85,1.71,1.71,3.42,2.56l-0.85,17.08
		c0,1.71,0.85,3.42,2.56,4.27c1.71,0.85,3.42,0.85,5.12,0l15.37-6.83c0.85,0.85,2.56,1.71,3.42,1.71l2.56,16.22
		c0,1.71,1.71,3.42,2.56,3.42c1.71,0.85,3.42,0.85,5.12-0.85l13.66-9.39c1.71,0,2.56,0.85,4.27,0.85l5.98,15.37
		c0.85,1.71,1.71,2.56,3.42,3.42c1.71,0,3.42,0,4.27-1.71l11.1-11.96c1.71,0,2.56,0,4.27,0l8.54,14.52
		c0.85,1.71,2.56,2.56,4.27,2.56c1.71,0,3.42-0.85,4.27-2.56l8.54-14.52c1.71,0,2.56,0,4.27,0l11.1,11.96
		c0.85,0.85,2.56,1.71,4.27,1.71c1.71,0,3.42-1.71,3.42-3.42l5.98-15.37c1.71,0,2.56-0.85,4.27-0.85l13.66,9.39
		c1.71,0.85,3.42,0.85,5.12,0.85c1.71-0.85,2.56-1.71,2.56-3.42l2.56-16.22c0.85-0.85,2.56-1.71,3.42-1.71l15.37,6.83
		c1.71,0.85,3.42,0.85,5.12,0c1.71-0.85,2.56-2.56,2.56-4.27l-0.85-17.08c0.85-0.85,2.56-1.71,3.42-2.56l16.22,3.42
		c1.71,0,3.42,0,4.27-1.71c0.85-0.85,1.71-2.56,1.71-4.27l-3.42-16.22c0.85-0.85,1.71-1.71,2.56-3.42l17.08,0.85
		c1.71,0,3.42-0.85,4.27-2.56s0.85-3.42,0-5.12l-6.83-15.37c0.85-0.85,1.71-2.56,1.71-3.42l16.22-2.56c1.71,0,3.42-1.71,3.42-2.56
		c0.85-1.71,0.85-3.42-0.85-5.12l-9.39-13.66c0.85-1.71,0.85-2.56,0.85-4.27l15.37-5.98c1.71-0.85,2.56-1.71,3.42-3.42
		c0-1.71,0-3.42-1.71-4.27l-11.96-11.1c0-1.71,0-2.56,0-4.27l14.52-8.54c1.71-0.85,2.56-2.56,2.56-4.27
		C-3004.75,1424.3-3006.46,1422.59-3007.31,1421.74z M-3102.95,1540.44c-5.12-0.85-8.54-6.83-7.69-11.96
		c0.85-5.12,6.83-8.54,11.96-7.69s8.54,6.83,7.69,11.96C-3091.85,1537.88-3096.97,1541.29-3102.95,1540.44z M-3108.08,1507.13
		c-5.12-0.85-10.25,1.71-11.1,6.83l-5.12,23.91c-15.37,6.83-33.3,11.1-51.24,11.1c-18.79,0-36.72-4.27-52.09-11.1l-5.12-23.91
		c-0.85-5.12-5.98-8.54-11.1-6.83l-20.49,4.27c-4.27-4.27-7.69-8.54-11.1-12.81h101.62c0.85,0,1.71,0,1.71-0.85v-35.87
		c0-0.85-0.85-0.85-1.71-0.85h-29.89v-23.06h32.45c2.56,0,15.37,0.85,19.64,17.08c0.85,5.12,4.27,21.35,5.98,26.47
		c1.71,5.98,9.39,17.93,17.93,17.93h50.38c0.85,0,0.85,0,1.71,0c-3.42,5.12-7.69,9.39-11.1,13.66L-3108.08,1507.13z
		 M-3248.12,1539.58c-5.12,0.85-11.1-2.56-11.96-7.69c-0.85-5.12,2.56-11.1,7.69-11.96c5.12-0.85,11.1,2.56,11.96,7.69
		C-3238.73,1532.75-3242.15,1538.73-3248.12,1539.58z M-3286.55,1383.31c2.56,5.12,0,11.1-5.12,13.66c-5.12,2.56-11.1,0-13.66-5.12
		c-2.56-5.12,0-11.1,5.12-13.66C-3294.24,1376.48-3288.26,1378.19-3286.55,1383.31z M-3298.51,1411.49l21.35-9.39
		c4.27-1.71,6.83-7.69,4.27-11.96l-4.27-10.25h17.93v79.42h-35.87c-3.42-11.1-5.12-22.2-5.12-34.16
		C-3298.51,1420.89-3298.51,1415.76-3298.51,1411.49z M-3202.86,1403.81v-23.06h41.84c2.56,0,15.37,2.56,15.37,11.96
		c0,8.54-10.25,11.1-17.93,11.1H-3202.86z M-3050.86,1425.16c0,3.42,0,5.98,0,9.39h-12.81c-0.85,0-1.71,0.85-1.71,1.71v5.98
		c0,13.66-7.69,17.08-14.52,17.93s-13.66-2.56-14.52-6.83c-3.42-21.35-10.25-26.47-20.49-34.16c12.81-7.69,25.62-19.64,25.62-35.01
		c0-17.08-11.96-27.33-19.64-32.45c-11.1-7.69-23.06-8.54-26.47-8.54h-131.51c17.93-19.64,41.84-34.16,69.17-39.28l15.37,16.22
		c3.42,3.42,9.39,3.42,12.81,0l17.08-16.22c36.72,6.83,67.46,29.03,84.54,60.63l-11.96,26.47c-1.71,4.27,0,10.25,4.27,11.96
		l23.06,10.25C-3050.86,1416.62-3050.86,1420.89-3050.86,1425.16z M-3182.37,1289.38c4.27-4.27,10.25-3.42,14.52,0
		c3.42,4.27,3.42,10.25,0,14.52c-4.27,4.27-10.25,3.42-14.52,0C-3186.64,1299.63-3186.64,1292.79-3182.37,1289.38z
		 M-3064.52,1384.17c2.56-5.12,8.54-7.69,13.66-5.12c5.12,2.56,7.69,8.54,5.12,13.66c-2.56,5.12-8.54,7.69-13.66,5.12
		C-3064.52,1395.27-3066.23,1389.29-3064.52,1384.17z"/>
	<g>
		<path class="st0" d="M-2428.25,1404.12c-5.83,5.35-14.26,8.03-25.29,8.03c-11.03,0-19.46-2.68-25.29-8.03
			c-7.82-6.56-11.73-16.02-11.73-28.37c0-12.6,3.91-22.06,11.73-28.37c5.83-5.35,14.26-8.03,25.29-8.03
			c11.03,0,19.46,2.68,25.29,8.03c7.78,6.31,11.67,15.77,11.67,28.37C-2416.58,1388.1-2420.47,1397.56-2428.25,1404.12z
			 M-2438.33,1393.67c3.75-4.2,5.63-10.17,5.63-17.92c0-7.71-1.88-13.68-5.63-17.89c-3.75-4.22-8.82-6.32-15.21-6.32
			c-6.39,0-11.48,2.1-15.29,6.3c-3.8,4.2-5.71,10.17-5.71,17.92s1.9,13.72,5.71,17.92c3.8,4.2,8.9,6.3,15.29,6.3
			C-2447.15,1399.97-2442.08,1397.87-2438.33,1393.67z"/>
		<path class="st0" d="M-2843.07,1398.37c0-0.06,0-0.11,0-0.18v-4.62c0-4.82-0.74-8.41-2.23-10.75c-1.48-2.35-4-4.16-7.56-5.44
			c4.26-1.31,7.31-3.54,9.16-6.7c1.85-3.16,2.78-6.37,2.78-9.64c0-2.71-0.48-5.12-1.43-7.23c-0.95-2.11-2.25-4.04-3.88-5.79
			c-1.97-2.12-4.38-3.72-7.22-4.81c-2.84-1.09-6.9-1.68-12.17-1.77h-5.98h-30.93h-12.67v11.86h12.67v45.05h-12.67v11.86h12.67h15.76
			h14.38v-11.86h-14.38v-15.11h15.75c4.49,0,7.55,0.73,9.19,2.19c1.63,1.46,2.48,4.39,2.55,8.77l0.1,6.39v9.61h0.03h19.5h10.18
			v-11.86H-2843.07z M-2861.67,1370.76c-1.72,0.75-4.31,1.12-7.76,1.12h-17.35v-18.48h17.8c3.31,0,5.8,0.4,7.46,1.21
			c2.95,1.43,4.42,4.23,4.42,8.4C-2857.1,1366.87-2858.62,1369.45-2861.67,1370.76z"/>
		<path class="st0" d="M-2746.57,1341.45h-7.78h-16.39h-9.68v11.86h9.68v30.38c0,4.73-0.63,8.17-1.88,10.35
			c-1.95,3.86-6.17,5.78-12.67,5.78c-6.54,0-10.78-1.93-12.73-5.78c-1.25-2.18-1.88-5.62-1.88-10.35v-30.38h10.68v-11.86h-10.68
			h-16.39h-8.17v11.86h8.17v30.41c0,7.31,1.27,13,3.81,17.08c4.77,7.47,13.83,11.2,27.18,11.2c13.34,0,22.39-3.73,27.12-11.2
			c2.54-4.07,3.81-9.77,3.81-17.08v-30.41h7.78V1341.45z"/>
		<path class="st0" d="M-2677.75,1376.08c-2.96-2.08-7.41-3.75-13.35-4.99l-13.54-2.85c-5.23-1.09-8.64-2.04-10.25-2.85
			c-2.51-1.21-3.76-3.05-3.76-5.51c0-2.67,1.27-4.76,3.81-6.25c2.54-1.49,5.94-2.24,10.2-2.24c3.83,0,7.03,0.58,9.61,1.73
			c3.86,1.74,5.94,4.68,6.23,8.82h15.5c-0.01-0.24-0.03-0.48-0.05-0.72v-20.95h-13.31v2.6c-4.9-2.28-10.51-3.43-16.85-3.43
			c-9.86,0-17.33,2.04-22.42,6.11c-5.09,4.08-7.63,9.19-7.63,15.35c0,6.75,2.6,11.71,7.8,14.89c3.07,1.9,8.71,3.66,16.92,5.27
			l8.35,1.63c4.89,0.93,8.46,2.01,10.71,3.22c2.25,1.24,3.38,3,3.38,5.27c0,3.89-2.3,6.55-6.9,7.98c-2.42,0.75-5.58,1.12-9.46,1.12
			c-6.49,0-11.06-1.41-13.74-4.25c-1.46-1.56-2.44-3.9-2.94-7.05h-15.39c0,0,0,0,0,0.01h0v21.62h13.31v-2.17
			c5.21,2.36,11.67,3.55,19.39,3.55c9.95,0,17.65-2.08,23.1-6.23c5.45-4.15,8.18-9.37,8.18-15.66
			C-2670.85,1383.99-2673.15,1379.31-2677.75,1376.08z"/>
		<polygon class="st0" points="-2597.88,1341.32 -2597.88,1341.45 -2609.93,1341.45 -2644.87,1341.45 -2644.87,1341.32 
			-2658.18,1341.32 -2658.18,1341.45 -2658.18,1353.63 -2658.18,1362.94 -2644.87,1362.94 -2644.87,1353.63 -2629.44,1353.63 
			-2629.44,1410.23 -2613.21,1410.23 -2613.21,1353.63 -2597.88,1353.63 -2597.88,1362.94 -2584.57,1362.94 -2584.57,1353.63 
			-2584.57,1341.45 -2584.57,1341.32 		"/>
		<path class="st0" d="M-2505.57,1340.61h-13.31v4.05c-5.35-3.01-12.06-4.51-20.15-4.51c-9.6,0-17.51,2.83-23.72,8.49
			c-7.15,6.5-10.72,15.76-10.72,27.76c0,11.1,3.14,19.85,9.43,26.22c6.28,6.35,14.92,9.52,25.9,9.52c8.87,0,16.15-2.35,21.83-7.05
			c5.68-4.7,9.21-10.79,10.59-18.29h-16.02c-1.06,3.55-2.39,6.21-3.99,7.98c-2.9,3.3-7.12,4.95-12.65,4.95
			c-5.39,0-9.84-1.92-13.34-5.76c-3.5-3.84-5.25-9.62-5.25-17.34c0-7.71,1.66-13.68,4.97-17.89c3.32-4.22,7.85-6.32,13.59-6.32
			c5.64,0,9.9,1.49,12.77,4.48c1.61,1.68,2.92,4.17,3.95,7.47h16.12c0-0.01,0-0.01,0-0.02h0V1340.61z"/>
		<polygon class="st0" points="-2347.81,1341.45 -2347.81,1389.41 -2378.44,1341.45 -2379.1,1341.45 -2395.35,1341.45 
			-2406.42,1341.45 -2406.42,1353.32 -2395.35,1353.32 -2395.35,1398.37 -2406.42,1398.37 -2406.42,1410.23 -2395.35,1410.23 
			-2380.32,1410.23 -2368.97,1410.23 -2368.97,1398.37 -2380.32,1398.37 -2380.32,1361.43 -2348.91,1410.23 -2332.79,1410.23 
			-2332.79,1341.45 		"/>
	</g>
	<g>
		<polygon class="st0" points="-2679.18,1461.77 -2679.18,1449.91 -2700.61,1449.91 -2716.63,1449.91 -2738.05,1449.91 
			-2738.05,1461.77 -2716.63,1461.77 -2716.63,1506.83 -2738.05,1506.83 -2738.05,1518.69 -2716.63,1518.69 -2700.61,1518.69 
			-2679.18,1518.69 -2679.18,1506.83 -2700.61,1506.83 -2700.61,1461.77 		"/>
		<path class="st0" d="M-2757.4,1484.53c-2.96-2.08-7.41-3.75-13.35-4.99l-13.54-2.85c-5.23-1.09-8.64-2.04-10.25-2.85
			c-2.51-1.21-3.76-3.05-3.76-5.51c0-2.67,1.27-4.76,3.81-6.25c2.54-1.49,5.94-2.24,10.2-2.24c3.83,0,7.03,0.58,9.61,1.73
			c3.86,1.74,5.94,4.68,6.23,8.82h15.5c0,0,0,0,0-0.01v-21.62h-13.31v2.58c-4.91-2.29-10.54-3.45-16.9-3.45
			c-9.86,0-17.33,2.04-22.42,6.11c-5.09,4.08-7.63,9.19-7.63,15.35c0,6.75,2.6,11.71,7.8,14.89c3.07,1.9,8.71,3.65,16.92,5.27
			l8.35,1.63c4.89,0.93,8.46,2.01,10.71,3.22c2.25,1.24,3.38,3,3.38,5.27c0,3.89-2.3,6.55-6.9,7.98c-2.42,0.75-5.58,1.12-9.46,1.12
			c-6.49,0-11.06-1.41-13.74-4.25c-1.46-1.56-2.44-3.9-2.94-7.05h-15.39c0,0,0,0,0,0h0v21.62h13.31v-2.17
			c5.21,2.36,11.67,3.55,19.39,3.55c9.95,0,17.65-2.08,23.1-6.23c5.45-4.15,8.18-9.37,8.18-15.66
			C-2750.5,1492.45-2752.8,1487.77-2757.4,1484.53z"/>
		<path class="st0" d="M-2825.56,1506.83h-13.03l-22.59-56.92h-0.92v0h-39.44v11.86h17.37l-18.05,45.05h-13v11.86h8.25l0,0h16.87
			l0,0h13.81v-11.86h-9.43l0.68-1.85l0.16-0.43l1.76-4.76l0.62-1.67h23.72l0.6,1.67l2.05,5.68h-0.01l0.49,1.36h-8.85v11.86h13.13
			l0,0h17.48l0,0h8.32V1506.83z M-2863.04,1486.25h-15.06l7.63-20.62L-2863.04,1486.25z"/>
		<path class="st0" d="M-2577.73,1506.83h-13.03l-22.59-56.92h-0.93v0h-39.44v11.86h17.37l-18.04,45.05h-13v11.86h8.25l0,0h16.86
			l0,0h13.82v-11.86h-9.43l0.84-2.28h0.01l2.38-6.43h23.71l2.32,6.43l0.33,0.92l0.49,1.36h-8.85v11.86h13.13v0h17.49v0h8.31V1506.83
			z M-2615.22,1486.25h-15.05l7.63-20.62L-2615.22,1486.25z"/>
	</g>
</g>
<g>
	<path id="XMLID_1_" d="M-3007.31,331.64l-14.52-8.54c0-1.71,0-2.56,0-4.27l11.96-11.1c0.85-0.85,1.71-2.56,1.71-4.27
		s-1.71-3.42-3.42-3.42l-15.37-5.98c0-1.71-0.85-2.56-0.85-4.27l9.39-13.66c0.85-1.71,0.85-3.42,0.85-5.12
		c-0.85-1.71-1.71-2.56-3.42-2.56l-16.22-2.56c-0.85-0.85-1.71-2.56-1.71-3.42l6.83-15.37c0.85-1.71,0.85-3.42,0-5.12
		c-0.85-1.71-2.56-2.56-4.27-2.56l-17.08,0.85c-0.85-0.85-1.71-2.56-2.56-3.42l3.42-16.22c0-1.71,0-3.42-1.71-4.27
		c-0.85-0.85-2.56-1.71-4.27-1.71l-16.22,3.42c-0.85-0.85-1.71-1.71-3.42-2.56l0.85-17.08c0-1.71-0.85-3.42-2.56-4.27
		c-1.71-0.85-3.42-0.85-5.12,0l-15.37,6.83c-0.85-0.85-2.56-1.71-3.42-1.71l-2.56-16.22c0-1.71-1.71-3.42-2.56-3.42
		c-1.71-0.85-3.42-0.85-5.12,0.85l-13.66,9.39c-1.71-0.85-2.56-0.85-4.27-0.85l-5.98-15.37c-0.85-1.71-1.71-2.56-3.42-3.42
		c-1.71,0-3.42,0-4.27,1.71l-11.1,11.96c-1.71,0-2.56,0-4.27,0l-8.54-14.52c-0.85-1.71-2.56-2.56-4.27-2.56s-3.42,0.85-4.27,2.56
		l-8.54,14.52c-1.71,0-2.56,0-4.27,0l-11.1-11.96c-0.85-0.85-2.56-1.71-4.27-1.71c-1.71,0-3.42,1.71-3.42,3.42l-5.98,15.37
		c-1.71,0-2.56,0.85-4.27,0.85l-13.66-9.39c-1.71-0.85-3.42-0.85-5.12-0.85c-1.71,0.85-2.56,1.71-2.56,3.42l-2.56,16.22
		c-0.85,0.85-2.56,1.71-3.42,1.71l-15.37-6.83c-1.71-0.85-3.42-0.85-5.12,0c-1.71,0.85-2.56,2.56-2.56,4.27l0.85,17.08
		c-0.85,0.85-2.56,1.71-3.42,2.56l-16.22-3.42c-1.71,0-3.42,0-4.27,1.71c-0.85,0.85-1.71,2.56-1.71,4.27l4.27,16.22
		c-0.85,0.85-1.71,1.71-2.56,3.42l-17.08-0.85c-1.71,0-3.42,0.85-4.27,2.56s-0.85,3.42,0,5.12l6.83,15.37
		c-0.85,0.85-1.71,2.56-1.71,3.42l-16.22,2.56c-1.71,0-3.42,1.71-3.42,2.56c-0.85,1.71-0.85,3.42,0.85,5.12l9.39,13.66
		c0,1.71-0.85,2.56-0.85,4.27l-15.37,5.98c-1.71,0.85-2.56,1.71-3.42,3.42c0,1.71,0,3.42,1.71,4.27l11.96,11.1c0,1.71,0,2.56,0,4.27
		l-14.52,8.54c-1.71,0.85-2.56,2.56-2.56,4.27s0.85,3.42,2.56,4.27l14.52,8.54c0,1.71,0,2.56,0,4.27l-11.96,11.1
		c-0.85,0.85-1.71,2.56-1.71,4.27c0,1.71,1.71,3.42,3.42,3.42l15.37,5.98c0,1.71,0.85,2.56,0.85,4.27l-9.39,13.66
		c-0.85,1.71-0.85,3.42-0.85,5.12c0.85,1.71,1.71,2.56,3.42,2.56l16.22,2.56c0.85,0.85,1.71,2.56,1.71,3.42l-6.83,15.37
		c-0.85,1.71-0.85,3.42,0,5.12c0.85,1.71,2.56,2.56,4.27,2.56l17.08-0.85c0.85,0.85,1.71,2.56,2.56,3.42l-3.42,16.22
		c0,1.71,0,3.42,1.71,4.27c0.85,0.85,2.56,1.71,4.27,1.71l16.23-3.42c0.85,0.85,1.71,1.71,3.42,2.56l-0.85,17.08
		c0,1.71,0.85,3.42,2.56,4.27c1.71,0.85,3.42,0.85,5.12,0l15.37-6.83c0.85,0.85,2.56,1.71,3.42,1.71l2.56,16.22
		c0,1.71,1.71,3.42,2.56,3.42c1.71,0.85,3.42,0.85,5.12-0.85l13.66-9.39c1.71,0,2.56,0.85,4.27,0.85l5.98,15.37
		c0.85,1.71,1.71,2.56,3.42,3.42c1.71,0,3.42,0,4.27-1.71l11.1-11.96c1.71,0,2.56,0,4.27,0l8.54,14.52
		c0.85,1.71,2.56,2.56,4.27,2.56c1.71,0,3.42-0.85,4.27-2.56l8.54-14.52c1.71,0,2.56,0,4.27,0l11.1,11.96
		c0.85,0.85,2.56,1.71,4.27,1.71c1.71,0,3.42-1.71,3.42-3.42l5.98-15.37c1.71,0,2.56-0.85,4.27-0.85l13.66,9.39
		c1.71,0.85,3.42,0.85,5.12,0.85c1.71-0.85,2.56-1.71,2.56-3.42l2.56-16.22c0.85-0.85,2.56-1.71,3.42-1.71l15.37,6.83
		c1.71,0.85,3.42,0.85,5.12,0c1.71-0.85,2.56-2.56,2.56-4.27l-0.85-17.08c0.85-0.85,2.56-1.71,3.42-2.56l16.22,3.42
		c1.71,0,3.42,0,4.27-1.71c0.85-0.85,1.71-2.56,1.71-4.27l-3.42-16.22c0.85-0.85,1.71-1.71,2.56-3.42l17.08,0.85
		c1.71,0,3.42-0.85,4.27-2.56s0.85-3.42,0-5.12l-6.83-15.37c0.85-0.85,1.71-2.56,1.71-3.42l16.22-2.56c1.71,0,3.42-1.71,3.42-2.56
		c0.85-1.71,0.85-3.42-0.85-5.12l-9.39-13.66c0.85-1.71,0.85-2.56,0.85-4.27l15.37-5.98c1.71-0.85,2.56-1.71,3.42-3.42
		c0-1.71,0-3.42-1.71-4.27l-11.96-11.1c0-1.71,0-2.56,0-4.27l14.52-8.54c1.71-0.85,2.56-2.56,2.56-4.27
		C-3004.75,334.2-3006.46,332.49-3007.31,331.64z M-3102.95,450.33c-5.12-0.85-8.54-6.83-7.69-11.96c0.85-5.12,6.83-8.54,11.96-7.69
		c5.12,0.85,8.54,6.83,7.69,11.96C-3091.85,447.77-3096.97,451.19-3102.95,450.33z M-3108.08,417.03
		c-5.12-0.85-10.25,1.71-11.1,6.83l-5.12,23.91c-15.37,6.83-33.3,11.1-51.24,11.1c-18.79,0-36.72-4.27-52.09-11.1l-5.12-23.91
		c-0.85-5.12-5.98-8.54-11.1-6.83l-20.49,4.27c-4.27-4.27-7.69-8.54-11.1-12.81h101.62c0.85,0,1.71,0,1.71-0.85v-35.87
		c0-0.85-0.85-0.85-1.71-0.85h-29.89v-23.06h32.45c2.56,0,15.37,0.85,19.64,17.08c0.85,5.12,4.27,21.35,5.98,26.47
		c1.71,5.98,9.39,17.93,17.93,17.93h50.38c0.85,0,0.85,0,1.71,0c-3.42,5.12-7.69,9.39-11.1,13.66L-3108.08,417.03z M-3248.12,449.48
		c-5.12,0.85-11.1-2.56-11.96-7.69c-0.85-5.12,2.56-11.1,7.69-11.96c5.12-0.85,11.1,2.56,11.96,7.69
		C-3238.73,442.65-3242.15,448.63-3248.12,449.48z M-3286.55,293.21c2.56,5.12,0,11.1-5.12,13.66c-5.12,2.56-11.1,0-13.66-5.12
		c-2.56-5.12,0-11.1,5.12-13.66C-3294.24,286.38-3288.26,288.08-3286.55,293.21z M-3298.51,321.39l21.35-9.39
		c4.27-1.71,6.83-7.69,4.27-11.96l-4.27-10.25h17.93v79.42h-35.87c-3.42-11.1-5.12-22.2-5.12-34.16
		C-3298.51,330.78-3298.51,325.66-3298.51,321.39z M-3202.86,313.7v-23.06h41.84c2.56,0,15.37,2.56,15.37,11.96
		c0,8.54-10.25,11.1-17.93,11.1H-3202.86z M-3050.86,335.05c0,3.42,0,5.98,0,9.39h-12.81c-0.85,0-1.71,0.85-1.71,1.71v5.98
		c0,13.66-7.69,17.08-14.52,17.93c-6.83,0.85-13.66-2.56-14.52-6.83c-3.42-21.35-10.25-26.47-20.49-34.16
		c12.81-7.69,25.62-19.64,25.62-35.01c0-17.08-11.96-27.33-19.64-32.45c-11.1-7.69-23.06-8.54-26.47-8.54h-131.51
		c17.93-19.64,41.84-34.16,69.17-39.28l15.37,16.22c3.42,3.42,9.39,3.42,12.81,0l17.08-16.22c36.72,6.83,67.46,29.03,84.54,60.63
		l-11.96,26.47c-1.71,4.27,0,10.25,4.27,11.96l23.06,10.25C-3050.86,326.51-3050.86,330.78-3050.86,335.05z M-3182.37,199.27
		c4.27-4.27,10.25-3.42,14.52,0c3.42,4.27,3.42,10.25,0,14.52c-4.27,4.27-10.25,3.42-14.52,0
		C-3186.64,209.52-3186.64,202.69-3182.37,199.27z M-3064.52,294.06c2.56-5.12,8.54-7.69,13.66-5.12c5.12,2.56,7.69,8.54,5.12,13.66
		c-2.56,5.12-8.54,7.69-13.66,5.12C-3064.52,305.16-3066.23,299.19-3064.52,294.06z"/>
	<g>
		<path d="M-2428.25,314.02c-5.83,5.35-14.26,8.03-25.29,8.03c-11.03,0-19.46-2.68-25.29-8.03c-7.82-6.56-11.73-16.02-11.73-28.37
			c0-12.6,3.91-22.06,11.73-28.37c5.83-5.35,14.26-8.03,25.29-8.03c11.03,0,19.46,2.68,25.29,8.03
			c7.78,6.31,11.67,15.77,11.67,28.37C-2416.58,298-2420.47,307.45-2428.25,314.02z M-2438.33,303.56
			c3.75-4.2,5.63-10.17,5.63-17.92c0-7.71-1.88-13.68-5.63-17.89c-3.75-4.22-8.82-6.32-15.21-6.32c-6.39,0-11.48,2.1-15.29,6.3
			c-3.8,4.2-5.71,10.17-5.71,17.92s1.9,13.72,5.71,17.92c3.8,4.2,8.9,6.3,15.29,6.3C-2447.15,309.86-2442.08,307.76-2438.33,303.56z
			"/>
		<path d="M-2843.07,308.27c0-0.06,0-0.11,0-0.18v-4.62c0-4.82-0.74-8.41-2.23-10.75c-1.48-2.35-4-4.16-7.56-5.44
			c4.26-1.31,7.31-3.54,9.16-6.7c1.85-3.16,2.78-6.37,2.78-9.64c0-2.71-0.48-5.12-1.43-7.23c-0.95-2.11-2.25-4.04-3.88-5.79
			c-1.97-2.12-4.38-3.72-7.22-4.81c-2.84-1.09-6.9-1.68-12.17-1.77h-5.98h-30.93h-12.67v11.86h12.67v45.05h-12.67v11.86h12.67h15.76
			h14.38v-11.86h-14.38v-15.11h15.75c4.49,0,7.55,0.73,9.19,2.19c1.63,1.46,2.48,4.39,2.55,8.77l0.1,6.39v9.61h0.03h19.5h10.18
			v-11.86H-2843.07z M-2861.67,280.65c-1.72,0.75-4.31,1.12-7.76,1.12h-17.35v-18.48h17.8c3.31,0,5.8,0.4,7.46,1.21
			c2.95,1.43,4.42,4.23,4.42,8.4C-2857.1,276.76-2858.62,279.35-2861.67,280.65z"/>
		<path d="M-2746.57,251.35h-7.78h-16.39h-9.68v11.86h9.68v30.38c0,4.73-0.63,8.17-1.88,10.35c-1.95,3.86-6.17,5.78-12.67,5.78
			c-6.54,0-10.78-1.93-12.73-5.78c-1.25-2.18-1.88-5.62-1.88-10.35v-30.38h10.68v-11.86h-10.68h-16.39h-8.17v11.86h8.17v30.41
			c0,7.31,1.27,13,3.81,17.08c4.77,7.47,13.83,11.2,27.18,11.2c13.34,0,22.39-3.73,27.12-11.2c2.54-4.07,3.81-9.77,3.81-17.08
			v-30.41h7.78V251.35z"/>
		<path d="M-2677.75,285.97c-2.96-2.08-7.41-3.75-13.35-4.99l-13.54-2.85c-5.23-1.09-8.64-2.04-10.25-2.85
			c-2.51-1.21-3.76-3.05-3.76-5.51c0-2.67,1.27-4.76,3.81-6.25c2.54-1.49,5.94-2.24,10.2-2.24c3.83,0,7.03,0.58,9.61,1.73
			c3.86,1.74,5.94,4.68,6.23,8.82h15.5c-0.01-0.24-0.03-0.48-0.05-0.72v-20.95h-13.31v2.6c-4.9-2.28-10.51-3.43-16.85-3.43
			c-9.86,0-17.33,2.04-22.42,6.11c-5.09,4.08-7.63,9.19-7.63,15.35c0,6.75,2.6,11.71,7.8,14.89c3.07,1.9,8.71,3.66,16.92,5.27
			l8.35,1.63c4.89,0.93,8.46,2.01,10.71,3.22c2.25,1.24,3.38,3,3.38,5.27c0,3.89-2.3,6.55-6.9,7.98c-2.42,0.75-5.58,1.12-9.46,1.12
			c-6.49,0-11.06-1.41-13.74-4.25c-1.46-1.56-2.44-3.9-2.94-7.05h-15.39c0,0,0,0,0,0.01h0v21.62h13.31v-2.17
			c5.21,2.36,11.67,3.55,19.39,3.55c9.95,0,17.65-2.08,23.1-6.23c5.45-4.15,8.18-9.37,8.18-15.66
			C-2670.85,293.89-2673.15,289.21-2677.75,285.97z"/>
		<polygon points="-2597.88,251.22 -2597.88,251.35 -2609.93,251.35 -2644.87,251.35 -2644.87,251.22 -2658.18,251.22 
			-2658.18,251.35 -2658.18,263.53 -2658.18,272.84 -2644.87,272.84 -2644.87,263.53 -2629.44,263.53 -2629.44,320.13 
			-2613.21,320.13 -2613.21,263.53 -2597.88,263.53 -2597.88,272.84 -2584.57,272.84 -2584.57,263.53 -2584.57,251.35 
			-2584.57,251.22 		"/>
		<path d="M-2505.57,250.5h-13.31v4.05c-5.35-3.01-12.06-4.51-20.15-4.51c-9.6,0-17.51,2.83-23.72,8.49
			c-7.15,6.5-10.72,15.76-10.72,27.76c0,11.1,3.14,19.85,9.43,26.22c6.28,6.35,14.92,9.52,25.9,9.52c8.87,0,16.15-2.35,21.83-7.05
			c5.68-4.7,9.21-10.79,10.59-18.29h-16.02c-1.06,3.55-2.39,6.21-3.99,7.98c-2.9,3.3-7.12,4.95-12.65,4.95
			c-5.39,0-9.84-1.92-13.34-5.76c-3.5-3.84-5.25-9.62-5.25-17.34c0-7.71,1.66-13.68,4.97-17.89c3.32-4.22,7.85-6.32,13.59-6.32
			c5.64,0,9.9,1.49,12.77,4.48c1.61,1.68,2.92,4.17,3.95,7.47h16.12c0-0.01,0-0.01,0-0.02h0V250.5z"/>
		<polygon points="-2347.81,251.35 -2347.81,299.31 -2378.44,251.35 -2379.1,251.35 -2395.35,251.35 -2406.42,251.35 
			-2406.42,263.21 -2395.35,263.21 -2395.35,308.27 -2406.42,308.27 -2406.42,320.13 -2395.35,320.13 -2380.32,320.13 
			-2368.97,320.13 -2368.97,308.27 -2380.32,308.27 -2380.32,271.33 -2348.91,320.13 -2332.79,320.13 -2332.79,251.35 		"/>
	</g>
	<g>
		<polygon points="-2679.18,371.67 -2679.18,359.8 -2700.61,359.8 -2716.63,359.8 -2738.05,359.8 -2738.05,371.67 -2716.63,371.67 
			-2716.63,416.72 -2738.05,416.72 -2738.05,428.59 -2716.63,428.59 -2700.61,428.59 -2679.18,428.59 -2679.18,416.72 
			-2700.61,416.72 -2700.61,371.67 		"/>
		<path d="M-2757.4,394.43c-2.96-2.08-7.41-3.75-13.35-4.99l-13.54-2.85c-5.23-1.09-8.64-2.04-10.25-2.85
			c-2.51-1.21-3.76-3.05-3.76-5.51c0-2.67,1.27-4.76,3.81-6.25c2.54-1.49,5.94-2.24,10.2-2.24c3.83,0,7.03,0.58,9.61,1.73
			c3.86,1.74,5.94,4.68,6.23,8.82h15.5c0,0,0,0,0-0.01v-21.62h-13.31v2.58c-4.91-2.29-10.54-3.45-16.9-3.45
			c-9.86,0-17.33,2.04-22.42,6.11c-5.09,4.08-7.63,9.19-7.63,15.35c0,6.75,2.6,11.71,7.8,14.89c3.07,1.9,8.71,3.65,16.92,5.27
			l8.35,1.63c4.89,0.93,8.46,2.01,10.71,3.22c2.25,1.24,3.38,3,3.38,5.27c0,3.89-2.3,6.55-6.9,7.98c-2.42,0.75-5.58,1.12-9.46,1.12
			c-6.49,0-11.06-1.41-13.74-4.25c-1.46-1.56-2.44-3.9-2.94-7.05h-15.39c0,0,0,0,0,0h0v21.62h13.31v-2.17
			c5.21,2.36,11.67,3.55,19.39,3.55c9.95,0,17.65-2.08,23.1-6.23c5.45-4.15,8.18-9.37,8.18-15.66
			C-2750.5,402.35-2752.8,397.66-2757.4,394.43z"/>
		<path d="M-2825.56,416.72h-13.03l-22.59-56.92h-0.92v0h-39.44v11.86h17.37l-18.05,45.05h-13v11.86h8.25l0,0h16.87l0,0h13.81
			v-11.86h-9.43l0.68-1.85l0.16-0.43l1.76-4.76l0.62-1.67h23.72l0.6,1.67l2.05,5.68h-0.01l0.49,1.36h-8.85v11.86h13.13l0,0h17.48
			l0,0h8.32V416.72z M-2863.04,396.15h-15.06l7.63-20.62L-2863.04,396.15z"/>
		<path d="M-2577.73,416.72h-13.03l-22.59-56.92h-0.93v0h-39.44v11.86h17.37l-18.04,45.05h-13v11.86h8.25l0,0h16.86l0,0h13.82
			v-11.86h-9.43l0.84-2.28h0.01l2.38-6.43h23.71l2.32,6.43l0.33,0.92l0.49,1.36h-8.85v11.86h13.13v0h17.49v0h8.31V416.72z
			 M-2615.22,396.15h-15.05l7.63-20.62L-2615.22,396.15z"/>
	</g>
</g>
<g>
	<path id="XMLID_23_" class="st0" d="M-1577.04,1329.8c-0.99-1.97-2.96-2.96-4.93-2.96l-19.74,0.99c-0.98-0.99-1.97-2.96-2.96-3.94
		l3.95-18.75c0-1.97,0-3.95-1.97-4.93c-0.99-0.99-2.96-1.98-4.93-1.98l-18.75,3.95c-0.99-0.99-1.97-1.97-3.95-2.96l0.99-19.73
		c0-1.98-0.99-3.95-2.96-4.93c-1.97-0.99-3.94-0.99-5.92,0l-17.76,7.89c-0.98-0.99-2.96-1.98-3.94-1.98l-2.96-18.75
		c0-1.97-1.97-3.94-2.96-3.94c-1.97-0.99-3.94-0.99-5.92,0.99l-15.79,10.84c-1.97-0.98-2.96-0.98-4.93-0.98l-6.9-17.76
		c-0.99-1.98-1.97-2.96-3.95-3.95c-1.97,0-3.94,0-4.93,1.97l-12.83,13.82h-4.93l-9.86-16.77c-0.99-1.98-2.96-2.96-4.93-2.96
		s-3.95,0.98-4.93,2.96l-9.86,16.77h-4.94l-12.83-13.82c-0.98-0.98-2.96-1.97-4.93-1.97c-1.97,0-3.94,1.97-3.94,3.95l-6.91,17.76
		c-1.97,0-2.95,0.98-4.93,0.98l-15.79-10.84c-1.97-0.99-3.94-0.99-5.91-0.99c-1.98,0.99-2.96,1.97-2.96,3.94l-2.96,18.75
		c-0.99,0.99-2.96,1.98-3.95,1.98l-17.76-7.89c-1.97-0.99-3.94-0.99-5.91,0c-1.98,0.98-2.96,2.95-2.96,4.93l0.98,19.73
		c-0.98,0.99-2.96,1.97-3.94,2.96l-18.75-3.95c-1.97,0-3.94,0-4.93,1.98c-0.99,0.98-1.97,2.96-1.97,4.93l4.93,18.75
		c-0.99,0.98-1.97,1.97-2.96,3.94l-19.73-0.99c-1.98,0-3.95,0.99-4.94,2.96c-0.98,1.98-0.98,3.95,0,5.92l1.01,2.28h56.05
		c23.42-23.32,54.99-38.38,78.12-40.76l17.77,18.75c3.94,3.94,10.84,3.94,14.8,0l19.73-18.75c29.91,5.56,56.39,19.95,76.32,40.76
		h61.8l1.01-2.28C-1576.06,1333.75-1576.06,1331.78-1577.04,1329.8z M-1733.93,1297.24c-4.93,4.93-11.84,3.94-16.77,0
		c-4.93-4.93-4.93-12.83,0-16.78c4.93-4.93,11.84-3.94,16.77,0C-1729.98,1285.4-1729.98,1292.31-1733.93,1297.24z M-1576.06,1540.95
		l-1.01-2.28h-62.82c-0.1,0.11-0.2,0.2-0.3,0.31l-1.11-0.31h-36.07c-0.13,0.42-0.23,0.85-0.31,1.3l-0.49,2.28l-5.43,25.34
		c-17.76,7.89-38.48,12.83-59.2,12.83c-21.71,0-42.43-4.93-60.19-12.83l-5.43-25.34l-0.49-2.28c-0.07-0.45-0.18-0.87-0.32-1.3h-93.4
		l-1.01,2.28c-0.98,1.97-0.98,3.95,0,5.92c0.99,1.97,2.96,2.96,4.94,2.96l19.73-0.99c0.99,0.99,1.97,2.96,2.96,3.95l-3.95,18.74
		c0,1.98,0,3.95,1.98,4.93c0.98,0.99,2.95,1.98,4.93,1.98l18.74-3.95c0.99,0.99,1.98,1.97,3.95,2.96l-0.99,19.74
		c0,1.97,0.99,3.94,2.96,4.93c1.97,0.98,3.95,0.98,5.92,0l17.76-7.89c0.99,0.98,2.96,1.97,3.95,1.97l2.95,18.75
		c0,1.97,1.98,3.94,2.96,3.94c1.98,0.99,3.95,0.99,5.92-0.98l15.79-10.86c1.97,0,2.96,0.98,4.93,0.98l6.9,17.76
		c0.99,1.98,1.98,2.96,3.95,3.95c1.97,0,3.94,0,4.93-1.97l12.83-13.82h4.93l9.86,16.78c0.99,1.97,2.96,2.95,4.93,2.95
		c1.98,0,3.95-0.98,4.94-2.95l9.86-16.78h4.93l12.83,13.82c0.99,0.98,2.96,1.97,4.93,1.97s3.95-1.97,3.95-3.95l6.9-17.76
		c1.97,0,2.96-0.98,4.93-0.98l15.79,10.86c1.97,0.98,3.94,0.98,5.92,0.98c1.97-0.98,2.95-1.97,2.95-3.94l2.96-18.75
		c0.99-0.99,2.96-1.97,3.95-1.97l17.76,7.89c1.97,0.98,3.94,0.98,5.92,0c1.97-0.99,2.96-2.96,2.96-4.93l-0.99-19.74
		c0.99-0.99,2.96-1.97,3.94-2.96l18.75,3.95c1.97,0,3.95,0,4.93-1.98c0.99-0.98,1.98-2.95,1.98-4.93l-3.95-18.74
		c0.99-0.99,1.97-1.98,2.96-3.95l19.73,0.99c1.98,0,3.95-0.99,4.93-2.96C-1575.07,1544.91-1575.07,1542.93-1576.06,1540.95z
		 M-1826.68,1569.57c-5.92,0.99-12.83-2.96-13.82-8.87c-0.98-5.92,2.96-12.84,8.88-13.82c5.91-0.99,12.83,2.96,13.81,8.87
		C-1815.82,1561.67-1819.77,1568.59-1826.68,1569.57z M-1645.13,1561.67c-0.99,5.92-6.9,9.86-13.82,8.88
		c-5.91-0.99-9.86-7.89-8.87-13.82c0.98-5.92,7.89-9.86,13.81-8.88C-1648.09,1548.85-1644.14,1555.75-1645.13,1561.67z"/>
	<g>
		<g>
			<path class="st0" d="M-1591.83,1420.84c-4.41,4.05-10.78,6.07-19.12,6.07c-8.34,0-14.71-2.02-19.12-6.07
				c-5.91-4.96-8.87-12.11-8.87-21.45c0-9.53,2.96-16.68,8.87-21.45c4.41-4.05,10.78-6.07,19.12-6.07c8.34,0,14.71,2.02,19.12,6.07
				c5.89,4.78,8.83,11.93,8.83,21.45C-1583,1408.72-1585.94,1415.88-1591.83,1420.84z M-1599.45,1412.94
				c2.84-3.18,4.26-7.69,4.26-13.55c0-5.83-1.42-10.34-4.26-13.53c-2.84-3.19-6.67-4.78-11.5-4.78c-4.83,0-8.68,1.59-11.56,4.76
				c-2.88,3.18-4.32,7.69-4.32,13.55c0,5.86,1.44,10.37,4.32,13.55c2.88,3.18,6.73,4.76,11.56,4.76
				C-1606.12,1417.7-1602.29,1416.11-1599.45,1412.94z"/>
			<path class="st0" d="M-1905.51,1416.49c0-0.05,0-0.09,0-0.13v-3.49c0-3.65-0.56-6.36-1.68-8.13c-1.12-1.78-3.03-3.15-5.72-4.11
				c3.22-0.99,5.53-2.68,6.93-5.06c1.4-2.39,2.1-4.82,2.1-7.29c0-2.05-0.36-3.87-1.08-5.47c-0.72-1.6-1.7-3.06-2.93-4.38
				c-1.49-1.6-3.31-2.81-5.46-3.63c-2.15-0.82-5.22-1.27-9.21-1.34h-4.52h-23.39h-9.58v8.97h9.58v34.07h-9.58v8.97h9.58h11.92h10.88
				v-8.97h-10.88v-11.42h11.91c3.39,0,5.71,0.55,6.95,1.66c1.24,1.11,1.88,3.32,1.93,6.63l0.08,4.83v7.27h0.02h14.75h7.7v-8.97
				H-1905.51z M-1919.58,1395.61c-1.3,0.57-3.26,0.85-5.87,0.85h-13.12v-13.97h13.46c2.51,0,4.39,0.31,5.64,0.92
				c2.23,1.08,3.35,3.2,3.35,6.35C-1916.12,1392.67-1917.27,1394.62-1919.58,1395.61z"/>
			<path class="st0" d="M-1832.54,1373.45h-5.88h-12.39h-7.32v8.97h7.32v22.97c0,3.57-0.47,6.18-1.42,7.83
				c-1.47,2.92-4.67,4.37-9.58,4.37c-4.94,0-8.15-1.46-9.63-4.37c-0.95-1.64-1.42-4.25-1.42-7.83v-22.97h8.08v-8.97h-8.08h-12.39
				h-6.18v8.97h6.18v23c0,5.53,0.96,9.83,2.88,12.91c3.61,5.65,10.46,8.47,20.55,8.47c10.09,0,16.93-2.82,20.51-8.47
				c1.92-3.08,2.88-7.39,2.88-12.91v-23h5.88V1373.45z"/>
			<path class="st0" d="M-1780.5,1399.63c-2.24-1.58-5.6-2.83-10.09-3.78l-10.24-2.15c-3.95-0.82-6.53-1.54-7.75-2.15
				c-1.89-0.92-2.84-2.31-2.84-4.16c0-2.02,0.96-3.6,2.88-4.73c1.92-1.13,4.49-1.69,7.71-1.69c2.9,0,5.32,0.44,7.26,1.31
				c2.92,1.32,4.49,3.54,4.71,6.67h11.72c-0.01-0.18-0.02-0.36-0.03-0.55v-15.84h-10.06v1.97c-3.71-1.72-7.95-2.59-12.74-2.59
				c-7.45,0-13.1,1.54-16.95,4.62c-3.85,3.08-5.77,6.95-5.77,11.61c0,5.1,1.97,8.86,5.9,11.26c2.32,1.43,6.59,2.76,12.8,3.99
				l6.32,1.23c3.7,0.71,6.4,1.52,8.1,2.44c1.7,0.94,2.55,2.27,2.55,3.99c0,2.94-1.74,4.95-5.21,6.03c-1.83,0.56-4.22,0.85-7.15,0.85
				c-4.9,0-8.37-1.07-10.39-3.21c-1.1-1.18-1.85-2.95-2.22-5.33h-11.64c0,0,0,0,0,0h0v16.35h10.06v-1.64
				c3.94,1.79,8.83,2.68,14.66,2.68c7.52,0,13.34-1.57,17.47-4.71c4.12-3.14,6.18-7.09,6.18-11.84
				C-1775.28,1405.62-1777.02,1402.08-1780.5,1399.63z"/>
			<polygon class="st0" points="-1720.1,1373.35 -1720.1,1373.45 -1729.21,1373.45 -1755.64,1373.45 -1755.64,1373.35 
				-1765.7,1373.35 -1765.7,1373.45 -1765.7,1382.66 -1765.7,1389.7 -1755.64,1389.7 -1755.64,1382.66 -1743.97,1382.66 
				-1743.97,1425.46 -1731.69,1425.46 -1731.69,1382.66 -1720.1,1382.66 -1720.1,1389.7 -1710.04,1389.7 -1710.04,1382.66 
				-1710.04,1373.45 -1710.04,1373.35 			"/>
			<path class="st0" d="M-1650.3,1372.81h-10.06v3.07c-4.04-2.27-9.12-3.41-15.24-3.41c-7.26,0-13.24,2.14-17.94,6.42
				c-5.41,4.92-8.11,11.92-8.11,20.99c0,8.4,2.38,15.01,7.13,19.83c4.75,4.8,11.28,7.2,19.58,7.2c6.71,0,12.21-1.78,16.51-5.33
				c4.29-3.55,6.96-8.16,8.01-13.83h-12.11c-0.8,2.68-1.81,4.69-3.02,6.03c-2.19,2.49-5.38,3.74-9.57,3.74
				c-4.08,0-7.44-1.45-10.09-4.36c-2.65-2.91-3.97-7.27-3.97-13.11c0-5.83,1.25-10.34,3.76-13.53c2.51-3.19,5.93-4.78,10.28-4.78
				c4.26,0,7.48,1.13,9.66,3.39c1.21,1.27,2.21,3.15,2.99,5.65h12.19c0,0,0-0.01,0-0.01h0V1372.81z"/>
			<polygon class="st0" points="-1531,1373.45 -1531,1409.72 -1554.17,1373.45 -1554.66,1373.45 -1566.95,1373.45 -1575.32,1373.45 
				-1575.32,1382.42 -1566.95,1382.42 -1566.95,1416.49 -1575.32,1416.49 -1575.32,1425.46 -1566.95,1425.46 -1555.59,1425.46 
				-1547.01,1425.46 -1547.01,1416.49 -1555.59,1416.49 -1555.59,1388.56 -1531.83,1425.46 -1519.64,1425.46 -1519.64,1373.45 			
				"/>
		</g>
		<g>
			<polygon class="st0" points="-1688.97,1460.43 -1688.97,1451.46 -1705.17,1451.46 -1717.28,1451.46 -1733.49,1451.46 
				-1733.49,1460.43 -1717.28,1460.43 -1717.28,1494.5 -1733.49,1494.5 -1733.49,1503.47 -1717.28,1503.47 -1705.17,1503.47 
				-1688.97,1503.47 -1688.97,1494.5 -1705.17,1494.5 -1705.17,1460.43 			"/>
			<path class="st0" d="M-1748.11,1477.64c-2.24-1.58-5.6-2.83-10.09-3.78l-10.24-2.15c-3.95-0.82-6.53-1.54-7.75-2.15
				c-1.89-0.92-2.84-2.31-2.84-4.16c0-2.02,0.96-3.6,2.88-4.73c1.92-1.13,4.49-1.69,7.71-1.69c2.89,0,5.32,0.44,7.26,1.31
				c2.92,1.32,4.49,3.54,4.71,6.67h11.72c0,0,0,0,0,0v-16.35h-10.06v1.95c-3.72-1.73-7.97-2.61-12.78-2.61
				c-7.45,0-13.1,1.54-16.95,4.62c-3.85,3.08-5.77,6.95-5.77,11.61c0,5.1,1.97,8.86,5.9,11.26c2.32,1.43,6.59,2.76,12.8,3.99
				l6.32,1.23c3.7,0.71,6.4,1.52,8.1,2.44c1.7,0.94,2.55,2.27,2.55,3.99c0,2.94-1.74,4.95-5.21,6.03c-1.83,0.56-4.22,0.85-7.15,0.85
				c-4.9,0-8.37-1.07-10.39-3.21c-1.1-1.18-1.85-2.95-2.22-5.33h-11.64c0,0,0,0,0,0l0,0v16.35h10.06v-1.64
				c3.94,1.79,8.83,2.68,14.66,2.68c7.52,0,13.34-1.57,17.47-4.71c4.12-3.14,6.18-7.09,6.18-11.84
				C-1742.9,1483.63-1744.64,1480.09-1748.11,1477.64z"/>
			<path class="st0" d="M-1799.65,1494.5h-9.85l-17.08-43.04h-0.7v0h-29.83v8.97h13.14l-13.65,34.07h-9.83v8.97h6.24l0,0h12.76l0,0
				h10.44v-8.97h-7.13l0.52-1.4l0.12-0.33l1.33-3.6l0.47-1.27h17.94l0.46,1.27l1.55,4.29h-0.01l0.37,1.03h-6.69v8.97h9.93l0,0h13.22
				l0,0h6.29V1494.5z M-1828,1478.95h-11.39l5.77-15.59L-1828,1478.95z"/>
			<path class="st0" d="M-1612.25,1494.5h-9.85l-17.08-43.04h-0.7v0h-29.83v8.97h13.13l-13.64,34.07h-9.83v8.97h6.24l0,0h12.75l0,0
				h10.45v-8.97h-7.13l0.63-1.72h0.01l1.8-4.87h17.93l1.75,4.87l0.25,0.7l0.37,1.03h-6.7v8.97h9.93l0,0h13.23l0,0h6.29V1494.5z
				 M-1640.6,1478.95h-11.38l5.77-15.59L-1640.6,1478.95z"/>
		</g>
	</g>
</g>
<g>
	<path id="XMLID_2_" d="M-1335.24,239.7c-0.99-1.97-2.96-2.96-4.93-2.96l-19.74,0.99c-0.98-0.99-1.97-2.96-2.96-3.94l3.95-18.75
		c0-1.97,0-3.95-1.97-4.93c-0.99-0.99-2.96-1.98-4.93-1.98l-18.75,3.95c-0.99-0.99-1.97-1.97-3.95-2.96l0.99-19.73
		c0-1.98-0.99-3.95-2.96-4.93c-1.97-0.99-3.94-0.99-5.92,0l-17.76,7.89c-0.98-0.99-2.96-1.98-3.94-1.98l-2.96-18.75
		c0-1.97-1.97-3.94-2.96-3.94c-1.97-0.99-3.94-0.99-5.92,0.99l-15.79,10.84c-1.97-0.98-2.96-0.98-4.93-0.98l-6.9-17.76
		c-0.99-1.98-1.97-2.96-3.95-3.95c-1.97,0-3.94,0-4.93,1.97l-12.83,13.82h-4.93l-9.86-16.77c-0.99-1.98-2.96-2.96-4.93-2.96
		s-3.95,0.98-4.93,2.96l-9.86,16.77h-4.94l-12.83-13.82c-0.98-0.98-2.96-1.97-4.93-1.97c-1.97,0-3.94,1.97-3.94,3.95l-6.91,17.76
		c-1.97,0-2.95,0.98-4.93,0.98l-15.79-10.84c-1.97-0.99-3.94-0.99-5.91-0.99c-1.98,0.99-2.96,1.97-2.96,3.94l-2.96,18.75
		c-0.99,0.99-2.96,1.98-3.95,1.98l-17.76-7.89c-1.97-0.99-3.94-0.99-5.91,0c-1.98,0.98-2.96,2.95-2.96,4.93l0.98,19.73
		c-0.98,0.99-2.96,1.97-3.94,2.96l-18.75-3.95c-1.97,0-3.94,0-4.93,1.98c-0.99,0.98-1.97,2.96-1.97,4.93l4.93,18.75
		c-0.99,0.98-1.97,1.97-2.96,3.94l-19.73-0.99c-1.98,0-3.95,0.99-4.94,2.96c-0.98,1.98-0.98,3.95,0,5.92l1.01,2.28h56.05
		c23.42-23.32,54.99-38.38,78.12-40.76l17.77,18.75c3.94,3.94,10.84,3.94,14.8,0l19.73-18.75c29.91,5.56,56.39,19.95,76.32,40.76
		h61.8l1.01-2.28C-1334.26,243.65-1334.26,241.68-1335.24,239.7z M-1492.12,207.14c-4.93,4.93-11.84,3.94-16.77,0
		c-4.93-4.93-4.93-12.83,0-16.78c4.93-4.93,11.84-3.94,16.77,0C-1488.17,195.29-1488.17,202.21-1492.12,207.14z M-1334.26,450.85
		l-1.01-2.28h-62.82c-0.1,0.11-0.2,0.2-0.3,0.31l-1.11-0.31h-36.07c-0.13,0.42-0.23,0.85-0.31,1.3l-0.49,2.28l-5.43,25.34
		c-17.76,7.89-38.48,12.83-59.2,12.83c-21.71,0-42.43-4.93-60.19-12.83l-5.43-25.34l-0.49-2.28c-0.07-0.45-0.18-0.87-0.32-1.3h-93.4
		l-1.01,2.28c-0.98,1.97-0.98,3.95,0,5.92c0.99,1.97,2.96,2.96,4.94,2.96l19.73-0.99c0.99,0.99,1.97,2.96,2.96,3.95l-3.95,18.74
		c0,1.98,0,3.95,1.98,4.93c0.98,0.99,2.95,1.98,4.93,1.98l18.74-3.95c0.99,0.99,1.98,1.97,3.95,2.96l-0.99,19.74
		c0,1.97,0.99,3.94,2.96,4.93c1.97,0.98,3.95,0.98,5.92,0l17.76-7.89c0.99,0.98,2.96,1.97,3.95,1.97l2.95,18.75
		c0,1.97,1.98,3.94,2.96,3.94c1.98,0.99,3.95,0.99,5.92-0.98l15.79-10.86c1.97,0,2.96,0.98,4.93,0.98l6.9,17.76
		c0.99,1.98,1.98,2.96,3.95,3.95c1.97,0,3.94,0,4.93-1.97l12.83-13.82h4.93l9.86,16.78c0.99,1.97,2.96,2.95,4.93,2.95
		c1.98,0,3.95-0.98,4.94-2.95l9.86-16.78h4.93l12.83,13.82c0.99,0.98,2.96,1.97,4.93,1.97s3.95-1.97,3.95-3.95l6.9-17.76
		c1.97,0,2.96-0.98,4.93-0.98l15.79,10.86c1.97,0.98,3.94,0.98,5.92,0.98c1.97-0.98,2.95-1.97,2.95-3.94l2.96-18.75
		c0.99-0.99,2.96-1.97,3.95-1.97l17.76,7.89c1.97,0.98,3.94,0.98,5.92,0c1.97-0.99,2.96-2.96,2.96-4.93l-0.99-19.74
		c0.99-0.99,2.96-1.97,3.94-2.96l18.75,3.95c1.97,0,3.95,0,4.93-1.98c0.99-0.98,1.98-2.95,1.98-4.93l-3.95-18.74
		c0.99-0.99,1.97-1.98,2.96-3.95l19.73,0.99c1.98,0,3.95-0.99,4.93-2.96C-1333.27,454.8-1333.27,452.82-1334.26,450.85z
		 M-1584.87,479.46c-5.92,0.99-12.83-2.96-13.82-8.87c-0.98-5.92,2.96-12.84,8.88-13.82c5.91-0.99,12.83,2.96,13.81,8.87
		C-1574.01,471.57-1577.97,478.48-1584.87,479.46z M-1403.32,471.57c-0.99,5.92-6.9,9.86-13.82,8.88
		c-5.91-0.99-9.86-7.89-8.87-13.82c0.98-5.92,7.89-9.86,13.81-8.88C-1406.28,458.74-1402.33,465.65-1403.32,471.57z"/>
	<g>
		<g>
			<path d="M-1350.02,330.73c-4.41,4.05-10.78,6.07-19.12,6.07c-8.34,0-14.71-2.02-19.12-6.07c-5.91-4.96-8.87-12.11-8.87-21.45
				c0-9.53,2.96-16.68,8.87-21.45c4.41-4.05,10.78-6.07,19.12-6.07c8.34,0,14.71,2.02,19.12,6.07c5.89,4.78,8.83,11.93,8.83,21.45
				C-1341.19,318.62-1344.14,325.77-1350.02,330.73z M-1357.64,322.83c2.84-3.18,4.26-7.69,4.26-13.55c0-5.83-1.42-10.34-4.26-13.53
				c-2.84-3.19-6.67-4.78-11.5-4.78c-4.83,0-8.68,1.59-11.56,4.76c-2.88,3.18-4.32,7.69-4.32,13.55s1.44,10.37,4.32,13.55
				c2.88,3.18,6.73,4.76,11.56,4.76C-1364.31,327.59-1360.48,326.01-1357.64,322.83z"/>
			<path d="M-1663.7,326.39c0-0.05,0-0.09,0-0.13v-3.49c0-3.65-0.56-6.36-1.68-8.13c-1.12-1.78-3.03-3.15-5.72-4.11
				c3.22-0.99,5.53-2.68,6.93-5.06c1.4-2.39,2.1-4.82,2.1-7.29c0-2.05-0.36-3.87-1.08-5.47c-0.72-1.6-1.7-3.06-2.93-4.38
				c-1.49-1.6-3.31-2.81-5.46-3.63c-2.15-0.82-5.22-1.27-9.21-1.34h-4.52h-23.39h-9.58v8.97h9.58v34.07h-9.58v8.97h9.58h11.92h10.88
				v-8.97h-10.88v-11.42h11.91c3.39,0,5.71,0.55,6.95,1.66c1.24,1.11,1.88,3.32,1.93,6.63l0.08,4.83v7.27h0.02h14.75h7.7v-8.97
				H-1663.7z M-1677.77,305.5c-1.3,0.57-3.26,0.85-5.87,0.85h-13.12v-13.97h13.46c2.51,0,4.39,0.31,5.64,0.92
				c2.23,1.08,3.35,3.2,3.35,6.35C-1674.31,302.56-1675.46,304.52-1677.77,305.5z"/>
			<path d="M-1590.73,283.35h-5.88h-12.39h-7.32v8.97h7.32v22.97c0,3.57-0.47,6.18-1.42,7.83c-1.47,2.92-4.67,4.37-9.58,4.37
				c-4.94,0-8.15-1.46-9.63-4.37c-0.95-1.64-1.42-4.25-1.42-7.83v-22.97h8.08v-8.97h-8.08h-12.39h-6.18v8.97h6.18v23
				c0,5.53,0.96,9.83,2.88,12.91c3.61,5.65,10.46,8.47,20.55,8.47c10.09,0,16.93-2.82,20.51-8.47c1.92-3.08,2.88-7.39,2.88-12.91
				v-23h5.88V283.35z"/>
			<path d="M-1538.69,309.53c-2.24-1.58-5.6-2.83-10.09-3.77l-10.24-2.15c-3.95-0.82-6.53-1.54-7.75-2.15
				c-1.89-0.92-2.84-2.31-2.84-4.16c0-2.02,0.96-3.6,2.88-4.73c1.92-1.13,4.49-1.69,7.71-1.69c2.9,0,5.32,0.44,7.26,1.31
				c2.92,1.32,4.49,3.54,4.71,6.67h11.72c-0.01-0.18-0.02-0.36-0.03-0.55v-15.84h-10.06v1.97c-3.71-1.72-7.95-2.59-12.74-2.59
				c-7.45,0-13.1,1.54-16.95,4.62c-3.85,3.08-5.77,6.95-5.77,11.61c0,5.1,1.97,8.86,5.9,11.26c2.32,1.43,6.59,2.76,12.8,3.99
				l6.32,1.23c3.7,0.71,6.4,1.52,8.1,2.44c1.7,0.94,2.55,2.27,2.55,3.99c0,2.94-1.74,4.95-5.21,6.03c-1.83,0.56-4.22,0.85-7.15,0.85
				c-4.9,0-8.37-1.07-10.39-3.21c-1.1-1.18-1.85-2.95-2.22-5.33h-11.64c0,0,0,0,0,0h0v16.35h10.06v-1.64
				c3.94,1.79,8.83,2.68,14.66,2.68c7.52,0,13.34-1.57,17.47-4.71c4.12-3.14,6.18-7.09,6.18-11.84
				C-1533.47,315.51-1535.21,311.97-1538.69,309.53z"/>
			<polygon points="-1478.3,283.25 -1478.3,283.35 -1487.4,283.35 -1513.83,283.35 -1513.83,283.25 -1523.89,283.25 
				-1523.89,283.35 -1523.89,292.56 -1523.89,299.6 -1513.83,299.6 -1513.83,292.56 -1502.16,292.56 -1502.16,335.36 
				-1489.89,335.36 -1489.89,292.56 -1478.3,292.56 -1478.3,299.6 -1468.23,299.6 -1468.23,292.56 -1468.23,283.35 -1468.23,283.25 
							"/>
			<path d="M-1408.49,282.71h-10.06v3.07c-4.04-2.27-9.12-3.41-15.24-3.41c-7.26,0-13.24,2.14-17.94,6.42
				c-5.41,4.92-8.11,11.92-8.11,20.99c0,8.4,2.38,15.01,7.13,19.83c4.75,4.8,11.28,7.2,19.58,7.2c6.71,0,12.21-1.78,16.51-5.33
				c4.29-3.55,6.96-8.16,8.01-13.83h-12.11c-0.8,2.68-1.81,4.69-3.02,6.03c-2.19,2.49-5.38,3.74-9.57,3.74
				c-4.08,0-7.44-1.45-10.09-4.36c-2.65-2.91-3.97-7.27-3.97-13.11c0-5.83,1.25-10.34,3.76-13.53c2.51-3.19,5.93-4.78,10.28-4.78
				c4.26,0,7.48,1.13,9.66,3.39c1.21,1.27,2.21,3.15,2.99,5.65h12.19c0,0,0-0.01,0-0.01h0V282.71z"/>
			<polygon points="-1289.19,283.35 -1289.19,319.61 -1312.36,283.35 -1312.85,283.35 -1325.14,283.35 -1333.51,283.35 
				-1333.51,292.32 -1325.14,292.32 -1325.14,326.39 -1333.51,326.39 -1333.51,335.36 -1325.14,335.36 -1313.78,335.36 
				-1305.2,335.36 -1305.2,326.39 -1313.78,326.39 -1313.78,298.45 -1290.02,335.36 -1277.83,335.36 -1277.83,283.35 			"/>
		</g>
		<g>
			<polygon points="-1447.16,370.33 -1447.16,361.36 -1463.36,361.36 -1475.48,361.36 -1491.68,361.36 -1491.68,370.33 
				-1475.48,370.33 -1475.48,404.4 -1491.68,404.4 -1491.68,413.37 -1475.48,413.37 -1463.36,413.37 -1447.16,413.37 
				-1447.16,404.4 -1463.36,404.4 -1463.36,370.33 			"/>
			<path d="M-1506.31,387.54c-2.24-1.58-5.6-2.83-10.09-3.77l-10.24-2.15c-3.95-0.82-6.53-1.54-7.75-2.15
				c-1.89-0.92-2.84-2.31-2.84-4.16c0-2.02,0.96-3.6,2.88-4.73c1.92-1.13,4.49-1.69,7.71-1.69c2.89,0,5.32,0.44,7.26,1.31
				c2.92,1.32,4.49,3.54,4.71,6.67h11.72c0,0,0,0,0,0V360.5h-10.06v1.95c-3.72-1.73-7.97-2.61-12.78-2.61
				c-7.45,0-13.1,1.54-16.95,4.62c-3.85,3.08-5.77,6.95-5.77,11.61c0,5.1,1.97,8.86,5.9,11.26c2.32,1.43,6.59,2.76,12.8,3.99
				l6.32,1.23c3.7,0.71,6.4,1.52,8.1,2.44c1.7,0.94,2.55,2.27,2.55,3.99c0,2.94-1.74,4.95-5.21,6.03c-1.83,0.56-4.22,0.85-7.15,0.85
				c-4.9,0-8.37-1.07-10.39-3.21c-1.1-1.18-1.85-2.95-2.22-5.33h-11.64c0,0,0,0,0,0l0,0v16.35h10.06v-1.64
				c3.94,1.79,8.83,2.68,14.66,2.68c7.52,0,13.34-1.57,17.47-4.71c4.12-3.14,6.18-7.09,6.18-11.84
				C-1501.09,393.53-1502.83,389.99-1506.31,387.54z"/>
			<path d="M-1557.85,404.4h-9.85l-17.08-43.04h-0.7v0h-29.83v8.97h13.14l-13.65,34.07h-9.83v8.97h6.24l0,0h12.76l0,0h10.44v-8.97
				h-7.13l0.52-1.4l0.12-0.33l1.33-3.6l0.47-1.27h17.94l0.46,1.27l1.55,4.29h-0.01l0.37,1.03h-6.69v8.97h9.93l0,0h13.22l0,0h6.29
				V404.4z M-1586.19,388.84h-11.39l5.77-15.59L-1586.19,388.84z"/>
			<path d="M-1370.45,404.4h-9.85l-17.08-43.04h-0.7v0h-29.83v8.97h13.13l-13.64,34.07h-9.83v8.97h6.24l0,0h12.75l0,0h10.45v-8.97
				h-7.13l0.63-1.72h0.01l1.8-4.87h17.93l1.75,4.87l0.25,0.7l0.37,1.03h-6.7v8.97h9.93l0,0h13.23l0,0h6.29V404.4z M-1398.79,388.84
				h-11.38l5.77-15.59L-1398.79,388.84z"/>
		</g>
	</g>
</g>
<g>
	<g>
		<g>
			<path class="st0" d="M-996.42,1389.98c1.38,0.59,2.55,1.47,3.5,2.62c0.79,0.95,1.42,2,1.88,3.15c0.46,1.15,0.69,2.46,0.69,3.94
				c0,1.78-0.45,3.53-1.35,5.25c-0.9,1.72-2.38,2.93-4.45,3.65c1.73,0.69,2.95,1.68,3.67,2.96c0.72,1.28,1.08,3.23,1.08,5.86v2.51
				c0,1.71,0.07,2.87,0.21,3.48c0.21,0.97,0.69,1.68,1.44,2.13v0.94h-8.64c-0.24-0.83-0.41-1.5-0.51-2.01
				c-0.2-1.05-0.31-2.12-0.33-3.23l-0.05-3.48c-0.03-2.39-0.45-3.98-1.24-4.78c-0.79-0.8-2.28-1.19-4.46-1.19h-7.64v14.68h-7.65
				v-37.45h17.91C-999.77,1389.07-997.8,1389.39-996.42,1389.98z M-1012.59,1395.52v10.06h8.42c1.67,0,2.93-0.2,3.76-0.61
				c1.48-0.71,2.22-2.12,2.22-4.22c0-2.27-0.72-3.79-2.15-4.57c-0.8-0.44-2.01-0.66-3.62-0.66H-1012.59z"/>
			<path class="st0" d="M-982.85,1389.02h7.95v23c0,2.57,0.3,4.45,0.91,5.63c0.94,2.1,3,3.15,6.18,3.15c3.16,0,5.21-1.05,6.15-3.15
				c0.61-1.18,0.91-3.06,0.91-5.63v-23h7.95v23.02c0,3.98-0.62,7.08-1.85,9.3c-2.3,4.06-6.69,6.1-13.16,6.1
				c-6.48,0-10.87-2.03-13.19-6.1c-1.23-2.22-1.85-5.32-1.85-9.3V1389.02z"/>
			<path class="st0" d="M-939.63,1414.91c0.24,1.71,0.72,2.99,1.43,3.84c1.3,1.54,3.52,2.31,6.67,2.31c1.88,0,3.42-0.2,4.59-0.61
				c2.23-0.78,3.35-2.23,3.35-4.34c0-1.24-0.55-2.19-1.64-2.87c-1.09-0.66-2.83-1.24-5.2-1.75l-4.05-0.89
				c-3.99-0.88-6.72-1.84-8.21-2.87c-2.52-1.73-3.79-4.43-3.79-8.1c0-3.35,1.23-6.14,3.7-8.36s6.09-3.33,10.88-3.33
				c3.99,0,7.4,1.05,10.22,3.14c2.82,2.09,4.3,5.13,4.44,9.11h-7.52c-0.14-2.25-1.15-3.85-3.02-4.8c-1.25-0.63-2.8-0.94-4.66-0.94
				c-2.07,0-3.71,0.41-4.95,1.22c-1.23,0.81-1.85,1.95-1.85,3.4c0,1.34,0.61,2.34,1.82,3c0.78,0.44,2.44,0.96,4.98,1.55l6.57,1.55
				c2.88,0.68,5.04,1.58,6.48,2.72c2.23,1.76,3.35,4.31,3.35,7.65c0,3.42-1.32,6.26-3.97,8.52c-2.64,2.26-6.38,3.39-11.21,3.39
				c-4.93,0-8.81-1.11-11.63-3.34c-2.83-2.23-4.24-5.29-4.24-9.18H-939.63z"/>
			<path class="st0" d="M-883.36,1389.02v6.63h-11.2v30.82h-7.88v-30.82h-11.25v-6.63H-883.36z"/>
			<path class="st0" d="M-875.21,1392.93c3.02-3.08,6.85-4.62,11.51-4.62c6.23,0,10.79,2.07,13.67,6.2
				c1.59,2.32,2.45,4.65,2.56,6.99h-7.82c-0.5-1.79-1.14-3.15-1.92-4.06c-1.39-1.63-3.46-2.44-6.2-2.44c-2.79,0-4.99,1.15-6.6,3.44
				s-2.41,5.54-2.41,9.74s0.85,7.35,2.55,9.44c1.7,2.09,3.86,3.14,6.47,3.14c2.68,0,4.73-0.9,6.14-2.69
				c0.78-0.96,1.43-2.41,1.94-4.34h7.77c-0.67,4.08-2.38,7.4-5.14,9.96c-2.76,2.56-6.29,3.84-10.59,3.84
				c-5.33,0-9.52-1.73-12.57-5.18c-3.05-3.47-4.57-8.23-4.57-14.28C-880.41,1401.51-878.68,1396.47-875.21,1392.93z"/>
			<path class="st0" d="M-812.38,1423.14c-2.83,2.91-6.92,4.37-12.27,4.37s-9.44-1.46-12.27-4.37c-3.79-3.57-5.69-8.72-5.69-15.45
				c0-6.86,1.9-12.01,5.69-15.45c2.83-2.91,6.92-4.37,12.27-4.37s9.44,1.46,12.27,4.37c3.78,3.44,5.67,8.59,5.67,15.45
				C-806.71,1414.42-808.6,1419.56-812.38,1423.14z M-817.27,1417.45c1.82-2.29,2.73-5.54,2.73-9.76c0-4.2-0.91-7.45-2.73-9.74
				s-4.28-3.44-7.38-3.44c-3.1,0-5.57,1.14-7.42,3.43s-2.77,5.54-2.77,9.75c0,4.22,0.92,7.47,2.77,9.76s4.32,3.43,7.42,3.43
				C-821.55,1420.88-819.09,1419.73-817.27,1417.45z"/>
			<path class="st0" d="M-800.87,1389.02h8.2l14.87,26.11v-26.11h7.29v37.45h-7.82l-15.24-26.57v26.57h-7.29V1389.02z"/>
			<path class="st0" d="M-942.29,1454.84h8.85l13.25,37.45h-8.49l-2.47-7.7h-13.79l-2.54,7.7h-8.18L-942.29,1454.84z
				 M-942.8,1478.13h9.59l-4.73-14.73L-942.8,1478.13z"/>
			<path class="st0" d="M-909.78,1480.72c0.24,1.71,0.72,2.99,1.43,3.84c1.3,1.54,3.52,2.31,6.67,2.31c1.88,0,3.42-0.2,4.59-0.61
				c2.23-0.78,3.35-2.23,3.35-4.34c0-1.24-0.55-2.19-1.64-2.87c-1.09-0.66-2.83-1.24-5.2-1.75l-4.05-0.89
				c-3.98-0.88-6.72-1.84-8.21-2.87c-2.52-1.73-3.79-4.43-3.79-8.1c0-3.35,1.23-6.14,3.7-8.36c2.47-2.22,6.09-3.33,10.88-3.33
				c4,0,7.4,1.05,10.22,3.14c2.82,2.09,4.3,5.13,4.44,9.11h-7.52c-0.14-2.25-1.15-3.85-3.02-4.8c-1.25-0.63-2.8-0.94-4.66-0.94
				c-2.07,0-3.72,0.41-4.95,1.22c-1.23,0.81-1.85,1.95-1.85,3.4c0,1.34,0.61,2.34,1.82,3c0.78,0.44,2.44,0.96,4.97,1.55l6.57,1.55
				c2.88,0.68,5.04,1.58,6.48,2.72c2.23,1.76,3.35,4.31,3.35,7.65c0,3.42-1.32,6.26-3.97,8.52c-2.64,2.26-6.38,3.39-11.21,3.39
				c-4.93,0-8.81-1.11-11.63-3.34c-2.83-2.23-4.24-5.29-4.24-9.18H-909.78z"/>
			<path class="st0" d="M-873.58,1492.28h-7.77v-37.45h7.77V1492.28z"/>
			<path class="st0" d="M-855.56,1454.84h8.85l13.25,37.45h-8.49l-2.47-7.7h-13.79l-2.54,7.7h-8.19L-855.56,1454.84z
				 M-856.07,1478.13h9.59l-4.73-14.73L-856.07,1478.13z"/>
		</g>
	</g>
	<path class="st0" d="M-675.32,1480.86l-17.27-16.03v-13.63l21.87-12.87c-0.05-0.05-0.1-0.1-0.14-0.15l-22.91-13.46v-13.63
		l17.27-16.03l-24.32-9.46l-1.17-13.52l13.59-19.78l-22.54-3.56l-6.34-13.54l9.94-22.36l-25.29,1.27l-8.87-10.03l5.32-25.25
		c-0.05-0.02-0.09-0.04-0.14-0.06l-25.15,5.3l-10.15-7.27l1.36-26.87l-25.73,11.43l-9.53-3.86l-4.19-26.53l-21.54,14.81l-11.77-2.39
		l-9.45-24.33l-16.04,17.27h-13.62l-13.24-22.5l-13.24,22.5h-13.64l-16.03-17.26l-9.46,24.32l-13.52,1.17l-19.78-13.59l-3.55,22.51
		l-13.55,6.38l-22.35-9.94l1.26,25.23l-10.03,8.92l-25.24-5.32c0,0.01-0.01,0.02-0.01,0.03l6.61,25.12l-7.47,10.28l-26.87-1.35
		l11.4,25.66l-3.81,9.61l-26.53,4.18l13.59,19.78l-1.17,13.52l-24.32,9.47l17.26,16.02v13.63l-22.53,13.24l22.53,13.25v13.63
		l-17.27,16.03l24.33,9.45l1.17,13.53l-13.6,19.78l22.52,3.54l6.37,13.55l-9.94,22.37l25.27-1.27l8.89,10.07l-5.32,25.21
		c0.05,0.02,0.1,0.05,0.14,0.06l25.15-5.3l10.14,7.29l-1.35,26.87l25.67-11.4l9.61,3.81l4.17,26.54l19.78-13.6l13.53,1.17
		l9.45,24.33l16.03-17.27h13.63l13.25,22.53l13.24-22.53h13.63l16.03,17.27l9.46-24.33l13.52-1.17l19.78,13.59l3.55-22.51
		l13.55-6.37l22.36,9.94l-1.27-25.27l10.02-8.89l25.25,5.32c0.03-0.05,0.05-0.1,0.07-0.14l-5.3-25.14l7.29-10.16l26.85,1.36
		l-11.4-25.67l3.82-9.61l26.52-4.18l-14.79-21.54l2.37-11.77L-675.32,1480.86z M-720.08,1386.58c0,7.28-5.91,13.19-13.2,13.19
		c-7.28,0-13.19-5.91-13.19-13.19c0-7.29,5.91-13.2,13.19-13.2C-725.99,1373.37-720.08,1379.28-720.08,1386.58z M-897.59,1246.19
		c7.29,0,13.19,5.91,13.19,13.2c0,7.28-5.9,13.19-13.19,13.19c-7.28,0-13.19-5.91-13.19-13.19
		C-910.79,1252.1-904.88,1246.19-897.59,1246.19z M-1062.09,1373.97c7.29,0,13.19,5.91,13.19,13.19c0,7.29-5.9,13.2-13.19,13.2
		c-7.28,0-13.19-5.91-13.19-13.2C-1075.29,1379.88-1069.38,1373.97-1062.09,1373.97z M-1001.38,1594.32
		c-7.28,0-13.19-5.9-13.19-13.19c0-7.28,5.91-13.19,13.19-13.19c7.29,0,13.19,5.91,13.19,13.19
		C-988.19,1588.41-994.09,1594.32-1001.38,1594.32z M-795.1,1596.75c-7.28,0-13.19-5.91-13.19-13.2c0-7.28,5.91-13.19,13.19-13.19
		s13.19,5.91,13.19,13.19C-781.91,1590.84-787.82,1596.75-795.1,1596.75z M-718.38,1457.4h-0.87c-2.79,22.91-13.09,67.2-50.7,105.86
		l-3.18,3.27l-10.65-2.98l-10.5-2.94l-12.18-3.42c-0.36-0.05-0.72-0.06-1.08-0.06c-0.75,0-4.51,0.15-5.02,3.2l-0.04,0.18l-0.56,2.62
		l-6.24,29.07l-1.12,5.22l-3.57,1.59c-23.47,10.44-48.94,15.95-73.67,15.95c-25.5,0-51.38-5.51-74.85-15.95l-3.57-1.59l-2.83-13.18
		l-3.05-14.26l-2.03-9.47l-0.03-0.17c-0.34-2.06-2.06-3.61-3.99-3.61c-0.42,0-0.85,0.07-1.28,0.22l-0.43,0.14l-11.22,2.33
		l-13.74,2.86l-9.18,1.92l-2.23-3.93c-14.26-12.94-27.83-36.54-37.29-64.88c-9.33-27.99-13.43-56.49-11.24-78.2l0.44-4.46
		l10.05-4.43l14.43-6.34l9.03-3.98l0.24-0.1c0.89-0.35,1.79-1.46,2.2-2.7c0.17-0.49,0.5-1.73-0.06-2.66l-0.08-0.14
		c0,0-1.45-2.65-3.14-5.76l-12.28-22.52c-1.07-1.95-1.83-3.38-2.12-3.92l-1.83-3.43l1.69-3.51c24.45-50.71,84.98-86.77,127.04-91.09
		l3.76-0.39l12,12.66l9.24,9.75l2.45,2.58c0.81,0.78,2.02,1.23,3.33,1.23c1.35,0,2.58-0.47,3.4-1.28l7.97-7.58l10.91-10.37
		l7.61-7.23l3.86,0.71c52.65,9.8,97.04,41.65,121.77,87.39l1.81,3.35l-7.4,16.37l-6.82,15.11l-3.72,8.24
		c-0.42,1.17-0.41,2.78,0.05,4.16c0.37,1.1,0.99,1.96,1.58,2.2l0.14,0.05l3.71,1.64l16.76,7.45l13.93,6.19l1.24,2.48
		c2.5,5.03,2.97,10.62,3.1,14.95c0,0.14,0.01,0.26,0.01,0.39c0.05,1.5,0.05,3.03,0.05,4.55V1457.4z"/>
	<polygon class="st0" points="-999.07,1485.73 -1024.26,1488.1 -1008.03,1508.5 	"/>
	<polygon class="st0" points="-792,1485.73 -766.81,1488.1 -783.04,1508.5 	"/>
	<polygon class="st0" points="-894.49,1345.78 -908.18,1324.51 -882.11,1324.67 	"/>
</g>
<g>
	<g>
		<g>
			<path d="M-614.27,294.27c1.38,0.59,2.55,1.47,3.5,2.62c0.79,0.95,1.42,2,1.88,3.15c0.46,1.15,0.69,2.46,0.69,3.94
				c0,1.78-0.45,3.53-1.35,5.25c-0.9,1.72-2.38,2.93-4.45,3.65c1.73,0.69,2.95,1.68,3.67,2.96c0.72,1.28,1.08,3.23,1.08,5.86v2.51
				c0,1.71,0.07,2.87,0.21,3.48c0.21,0.97,0.69,1.68,1.44,2.13v0.94h-8.64c-0.24-0.83-0.41-1.5-0.51-2.01
				c-0.2-1.05-0.31-2.12-0.33-3.23l-0.05-3.48c-0.03-2.39-0.45-3.98-1.24-4.78c-0.79-0.8-2.28-1.19-4.46-1.19h-7.64v14.68h-7.65
				V293.3h17.91C-617.62,293.35-615.65,293.67-614.27,294.27z M-630.44,299.8v10.06h8.42c1.67,0,2.93-0.2,3.76-0.61
				c1.48-0.71,2.22-2.12,2.22-4.22c0-2.27-0.72-3.79-2.15-4.57c-0.8-0.44-2.01-0.66-3.62-0.66H-630.44z"/>
			<path d="M-600.69,293.3h7.95v23c0,2.57,0.3,4.45,0.91,5.63c0.94,2.1,3,3.15,6.18,3.15c3.16,0,5.21-1.05,6.15-3.15
				c0.61-1.18,0.91-3.06,0.91-5.63v-23h7.95v23.02c0,3.98-0.62,7.08-1.85,9.3c-2.3,4.06-6.69,6.1-13.16,6.1
				c-6.48,0-10.87-2.03-13.19-6.1c-1.23-2.22-1.85-5.32-1.85-9.3V293.3z"/>
			<path d="M-557.48,319.19c0.24,1.71,0.72,2.99,1.43,3.84c1.3,1.54,3.52,2.31,6.67,2.31c1.88,0,3.42-0.2,4.59-0.61
				c2.23-0.78,3.35-2.23,3.35-4.34c0-1.24-0.55-2.19-1.64-2.87c-1.09-0.66-2.83-1.24-5.2-1.75l-4.05-0.89
				c-3.99-0.88-6.72-1.84-8.21-2.87c-2.52-1.73-3.79-4.43-3.79-8.1c0-3.35,1.23-6.14,3.7-8.36s6.09-3.33,10.88-3.33
				c3.99,0,7.4,1.05,10.22,3.14c2.82,2.09,4.3,5.13,4.44,9.11h-7.52c-0.14-2.25-1.15-3.85-3.02-4.8c-1.25-0.63-2.8-0.94-4.66-0.94
				c-2.07,0-3.71,0.41-4.95,1.22c-1.23,0.81-1.85,1.95-1.85,3.4c0,1.34,0.61,2.34,1.82,3c0.78,0.44,2.44,0.96,4.98,1.55l6.57,1.55
				c2.88,0.68,5.04,1.58,6.48,2.72c2.23,1.76,3.35,4.31,3.35,7.65c0,3.42-1.32,6.26-3.97,8.52c-2.64,2.26-6.38,3.39-11.21,3.39
				c-4.93,0-8.81-1.11-11.63-3.34c-2.83-2.23-4.24-5.29-4.24-9.18H-557.48z"/>
			<path d="M-501.21,293.3v6.63h-11.2v30.82h-7.88v-30.82h-11.25v-6.63H-501.21z"/>
			<path d="M-493.06,297.21c3.02-3.08,6.85-4.62,11.51-4.62c6.23,0,10.79,2.07,13.67,6.2c1.59,2.32,2.45,4.65,2.56,6.99h-7.82
				c-0.5-1.79-1.14-3.15-1.92-4.06c-1.39-1.63-3.46-2.44-6.2-2.44c-2.79,0-4.99,1.15-6.6,3.44s-2.41,5.54-2.41,9.74
				s0.85,7.35,2.55,9.44c1.7,2.09,3.86,3.14,6.47,3.14c2.68,0,4.73-0.9,6.14-2.69c0.78-0.96,1.43-2.41,1.94-4.34h7.77
				c-0.67,4.08-2.38,7.4-5.14,9.96c-2.76,2.56-6.29,3.84-10.59,3.84c-5.33,0-9.52-1.73-12.57-5.18c-3.05-3.47-4.57-8.23-4.57-14.28
				C-498.26,305.79-496.53,300.75-493.06,297.21z"/>
			<path d="M-430.23,327.42c-2.83,2.91-6.92,4.37-12.27,4.37s-9.44-1.46-12.27-4.37c-3.79-3.57-5.69-8.72-5.69-15.45
				c0-6.86,1.9-12.01,5.69-15.45c2.83-2.91,6.92-4.37,12.27-4.37s9.44,1.46,12.27,4.37c3.78,3.44,5.67,8.59,5.67,15.45
				C-424.56,318.7-426.45,323.85-430.23,327.42z M-435.12,321.73c1.82-2.29,2.73-5.54,2.73-9.76c0-4.2-0.91-7.45-2.73-9.74
				s-4.28-3.44-7.38-3.44c-3.1,0-5.57,1.14-7.42,3.43s-2.77,5.54-2.77,9.75c0,4.22,0.92,7.47,2.77,9.76s4.32,3.43,7.42,3.43
				C-439.4,325.16-436.94,324.01-435.12,321.73z"/>
			<path d="M-418.72,293.3h8.2l14.87,26.11V293.3h7.29v37.45h-7.82l-15.24-26.57v26.57h-7.29V293.3z"/>
			<path d="M-560.13,359.12h8.85l13.25,37.45h-8.49l-2.47-7.7h-13.79l-2.54,7.7h-8.18L-560.13,359.12z M-560.65,382.41h9.59
				l-4.73-14.73L-560.65,382.41z"/>
			<path d="M-527.63,385.01c0.24,1.71,0.72,2.99,1.43,3.84c1.3,1.54,3.52,2.31,6.67,2.31c1.88,0,3.42-0.2,4.59-0.61
				c2.23-0.78,3.35-2.23,3.35-4.34c0-1.24-0.55-2.19-1.64-2.87c-1.09-0.66-2.83-1.24-5.2-1.75l-4.05-0.89
				c-3.98-0.88-6.72-1.84-8.21-2.87c-2.52-1.73-3.79-4.43-3.79-8.1c0-3.35,1.23-6.14,3.7-8.36c2.47-2.22,6.09-3.33,10.88-3.33
				c4,0,7.4,1.05,10.22,3.14c2.82,2.09,4.3,5.13,4.44,9.11h-7.52c-0.14-2.25-1.15-3.85-3.02-4.8c-1.25-0.63-2.8-0.94-4.66-0.94
				c-2.07,0-3.72,0.41-4.95,1.22c-1.23,0.81-1.85,1.95-1.85,3.4c0,1.34,0.61,2.34,1.82,3c0.78,0.44,2.44,0.96,4.97,1.55l6.57,1.55
				c2.88,0.68,5.04,1.58,6.48,2.72c2.23,1.76,3.35,4.31,3.35,7.65c0,3.42-1.32,6.26-3.97,8.52c-2.64,2.26-6.38,3.39-11.21,3.39
				c-4.93,0-8.81-1.11-11.63-3.34c-2.83-2.23-4.24-5.29-4.24-9.18H-527.63z"/>
			<path d="M-491.43,396.56h-7.77v-37.45h7.77V396.56z"/>
			<path d="M-473.4,359.12h8.85l13.25,37.45h-8.49l-2.47-7.7h-13.79l-2.54,7.7h-8.19L-473.4,359.12z M-473.92,382.41h9.59
				l-4.73-14.73L-473.92,382.41z"/>
		</g>
	</g>
	<path d="M-293.16,385.14l-17.27-16.03v-13.63l21.87-12.87c-0.05-0.05-0.1-0.1-0.14-0.15l-22.91-13.46v-13.63l17.27-16.03
		l-24.32-9.46l-1.17-13.52l13.59-19.78l-22.54-3.56l-6.34-13.54l9.94-22.36l-25.29,1.27l-8.87-10.03l5.32-25.25
		c-0.05-0.02-0.09-0.04-0.14-0.06l-25.15,5.3l-10.15-7.27l1.36-26.87l-25.73,11.43l-9.53-3.86l-4.19-26.53l-21.54,14.81l-11.77-2.39
		l-9.45-24.33l-16.04,17.27h-13.62l-13.24-22.5l-13.24,22.5h-13.64l-16.03-17.26l-9.46,24.32l-13.52,1.17l-19.78-13.59l-3.55,22.51
		l-13.55,6.38l-22.35-9.94l1.26,25.23l-10.03,8.92l-25.24-5.32c0,0.01-0.01,0.02-0.01,0.03l6.61,25.12l-7.47,10.28l-26.87-1.35
		l11.4,25.66l-3.81,9.61l-26.53,4.18l13.59,19.78l-1.17,13.52l-24.32,9.47l17.26,16.02v13.63l-22.53,13.24l22.53,13.25v13.63
		l-17.27,16.03l24.33,9.45l1.17,13.53l-13.6,19.78l22.52,3.54l6.37,13.55l-9.94,22.37l25.27-1.27l8.89,10.07l-5.32,25.21
		c0.05,0.02,0.1,0.05,0.14,0.06l25.15-5.3l10.14,7.29l-1.35,26.87l25.67-11.4l9.61,3.81l4.17,26.54l19.78-13.6l13.53,1.17
		l9.45,24.33l16.03-17.27h13.63l13.25,22.53l13.24-22.53h13.63l16.03,17.27l9.46-24.33l13.52-1.17l19.78,13.59l3.55-22.51
		l13.55-6.37l22.36,9.94l-1.27-25.27l10.02-8.89l25.25,5.32c0.03-0.05,0.05-0.1,0.07-0.14l-5.3-25.14l7.29-10.16l26.85,1.36
		l-11.4-25.67l3.82-9.61l26.52-4.18l-14.79-21.54l2.37-11.77L-293.16,385.14z M-337.92,290.86c0,7.28-5.91,13.19-13.2,13.19
		c-7.28,0-13.19-5.91-13.19-13.19c0-7.29,5.91-13.2,13.19-13.2C-343.83,277.66-337.92,283.57-337.92,290.86z M-515.44,150.47
		c7.29,0,13.19,5.91,13.19,13.2c0,7.28-5.9,13.19-13.19,13.19c-7.28,0-13.19-5.91-13.19-13.19
		C-528.64,156.38-522.73,150.47-515.44,150.47z M-679.94,278.25c7.29,0,13.19,5.91,13.19,13.19c0,7.29-5.9,13.2-13.19,13.2
		c-7.28,0-13.19-5.91-13.19-13.2C-693.13,284.16-687.22,278.25-679.94,278.25z M-619.23,498.6c-7.28,0-13.19-5.9-13.19-13.19
		c0-7.28,5.91-13.19,13.19-13.19c7.29,0,13.19,5.91,13.19,13.19C-606.04,492.7-611.94,498.6-619.23,498.6z M-412.95,501.03
		c-7.28,0-13.19-5.91-13.19-13.2c0-7.28,5.91-13.19,13.19-13.19c7.28,0,13.19,5.91,13.19,13.19
		C-399.75,495.12-405.66,501.03-412.95,501.03z M-336.22,361.68h-0.87c-2.79,22.91-13.09,67.2-50.7,105.86l-3.18,3.27l-10.65-2.98
		l-10.5-2.94l-12.18-3.42c-0.36-0.05-0.72-0.06-1.08-0.06c-0.75,0-4.51,0.15-5.02,3.2l-0.04,0.18l-0.56,2.62l-6.24,29.07l-1.12,5.22
		l-3.57,1.59c-23.47,10.44-48.94,15.95-73.67,15.95c-25.5,0-51.38-5.51-74.85-15.95l-3.57-1.59l-2.83-13.18l-3.05-14.26l-2.03-9.47
		l-0.03-0.17c-0.34-2.06-2.06-3.61-3.99-3.61c-0.42,0-0.85,0.07-1.28,0.22l-0.43,0.14l-11.22,2.33l-13.74,2.86l-9.18,1.92
		l-2.23-3.93c-14.26-12.94-27.83-36.54-37.29-64.88c-9.34-27.99-13.43-56.49-11.24-78.2l0.44-4.46l10.05-4.43l14.43-6.34l9.03-3.98
		l0.24-0.1c0.89-0.35,1.79-1.46,2.2-2.7c0.17-0.49,0.5-1.74-0.06-2.66l-0.08-0.14c0,0-1.45-2.65-3.14-5.76l-12.28-22.52
		c-1.07-1.95-1.83-3.38-2.12-3.92l-1.83-3.43l1.69-3.51c24.45-50.71,84.98-86.77,127.04-91.09l3.76-0.39l12,12.66l9.24,9.75
		l2.45,2.58c0.81,0.78,2.02,1.23,3.33,1.23c1.35,0,2.58-0.47,3.4-1.28l7.97-7.58l10.91-10.37l7.61-7.23l3.86,0.71
		c52.65,9.8,97.04,41.65,121.77,87.39l1.81,3.35l-7.4,16.37l-6.82,15.11l-3.72,8.24c-0.42,1.17-0.41,2.78,0.05,4.16
		c0.37,1.1,0.99,1.96,1.58,2.2l0.14,0.05l3.71,1.64l16.76,7.45l13.93,6.19l1.24,2.48c2.5,5.03,2.97,10.62,3.1,14.95
		c0,0.14,0.01,0.26,0.01,0.39c0.05,1.5,0.05,3.03,0.05,4.55V361.68z"/>
	<polygon points="-616.92,390.01 -642.1,392.38 -625.88,412.79 	"/>
	<polygon points="-409.85,390.01 -384.66,392.38 -400.89,412.79 	"/>
	<polygon points="-512.34,250.06 -526.03,228.79 -499.96,228.95 	"/>
</g>
<g>
	<g>
		<g>
			<path class="st0" d="M246.13,1352.18c4.72,0,8.75,0.62,12.09,1.87c3.34,1.25,6.06,3.01,8.15,5.28c2.09,2.27,3.61,4.97,4.54,8.08
				c0.94,3.12,1.4,6.5,1.4,10.15c0,6.41-1.29,11.58-3.87,15.5c-2.58,3.92-6.73,6.32-12.42,7.21v0.27
				c5.97,0.53,10.06,2.63,12.29,6.28c2.23,3.65,3.34,8.68,3.34,15.1v8.15c0,1.25,0,2.54,0,3.87s0.04,2.61,0.13,3.81
				c0.09,1.2,0.22,2.29,0.4,3.27c0.18,0.98,0.4,1.74,0.67,2.27c0.35,0.53,0.71,1.05,1.07,1.54c0.35,0.49,0.94,0.96,1.74,1.4v1.34
				h-26.45c-0.62-1.25-1.09-2.72-1.4-4.41c-0.31-1.69-0.53-3.38-0.67-5.08c-0.13-1.69-0.22-3.32-0.27-4.88
				c-0.05-1.56-0.07-2.83-0.07-3.81v-6.41c0-2.67-0.13-4.9-0.4-6.68c-0.27-1.78-0.73-3.18-1.4-4.21c-0.67-1.02-1.52-1.74-2.54-2.14
				c-1.03-0.4-2.29-0.6-3.81-0.6h-6.55v38.21h-24.85v-95.39H246.13z M237.05,1392.52c3.56,0,6.19-1.05,7.88-3.14
				c1.69-2.09,2.54-4.83,2.54-8.22c0-4.01-0.83-6.86-2.47-8.55c-1.65-1.69-4.34-2.54-8.08-2.54h-4.81v22.44H237.05z"/>
			<path class="st0" d="M307.72,1420.98c0,4.63,0.67,7.73,2,9.29c1.34,1.56,3.16,2.34,5.48,2.34c2.31,0,4.14-0.78,5.48-2.34
				c1.34-1.56,2-4.65,2-9.29v-68.8h24.85v62.52c0,6.68-0.71,12.25-2.14,16.7c-1.43,4.45-3.5,8.02-6.21,10.69
				c-2.72,2.67-6.08,4.5-10.09,5.48c-4.01,0.98-8.64,1.47-13.89,1.47c-5.17,0-9.78-0.49-13.83-1.47c-4.05-0.98-7.44-2.81-10.15-5.48
				c-2.72-2.67-4.79-6.23-6.21-10.69c-1.43-4.45-2.14-10.02-2.14-16.7v-62.52h24.85V1420.98z"/>
			<path class="st0" d="M395.36,1377.43c0-2.85-0.58-5.28-1.74-7.28c-1.16-2-2.94-3.01-5.34-3.01c-2.67,0-4.63,0.87-5.88,2.61
				c-1.25,1.74-1.87,3.67-1.87,5.81c0,3.12,1,5.59,3.01,7.42c2,1.83,4.52,3.41,7.55,4.74c3.03,1.34,6.28,2.7,9.75,4.08
				c3.47,1.38,6.72,3.19,9.75,5.41c3.03,2.23,5.54,5.14,7.55,8.75c2,3.61,3.01,8.31,3.01,14.09c0,10.15-2.9,17.52-8.68,22.11
				c-5.79,4.59-14.16,6.88-25.12,6.88c-5.17,0-9.73-0.42-13.69-1.27c-3.96-0.85-7.3-2.31-10.02-4.41c-2.72-2.09-4.79-4.83-6.21-8.22
				c-1.43-3.38-2.14-7.57-2.14-12.56v-3.34h24.05v2.27c0,4.1,0.75,6.97,2.27,8.62c1.51,1.65,3.47,2.47,5.88,2.47
				c2.58,0,4.56-0.89,5.95-2.67c1.38-1.78,2.07-3.96,2.07-6.55c0-3.12-0.96-5.59-2.87-7.41c-1.92-1.83-4.32-3.38-7.21-4.68
				c-2.9-1.29-6.04-2.6-9.42-3.94c-3.39-1.34-6.53-3.07-9.42-5.21c-2.9-2.14-5.3-4.94-7.21-8.42c-1.92-3.47-2.87-8.02-2.87-13.63
				c0-9.71,2.58-17.1,7.75-22.18c5.16-5.08,13-7.62,23.51-7.62c10.87,0,18.72,2.34,23.58,7.01c4.85,4.68,7.28,12.14,7.28,22.38
				h-23.25V1377.43z"/>
			<path class="st0" d="M424.08,1373.28v-21.11h61.99v21.11h-18.7v74.28h-24.85v-74.28H424.08z"/>
			<path class="st0" d="M528.16,1370.08c-1.07-1.96-2.81-2.94-5.21-2.94c-1.87,0-3.36,0.49-4.48,1.47
				c-1.12,0.98-1.96,2.72-2.54,5.21c-0.58,2.49-0.96,5.86-1.14,10.09c-0.18,4.23-0.27,9.55-0.27,15.97c0,6.41,0.09,11.74,0.27,15.96
				c0.18,4.23,0.55,7.59,1.14,10.09c0.58,2.49,1.42,4.23,2.54,5.21c1.11,0.98,2.61,1.47,4.48,1.47c1.51,0,2.76-0.38,3.74-1.14
				c0.98-0.76,1.74-2.02,2.27-3.81c0.53-1.78,0.91-4.16,1.14-7.15c0.22-2.98,0.33-6.75,0.33-11.29h24.05v7.08
				c0,6.68-0.89,12.16-2.67,16.43c-1.78,4.27-4.14,7.64-7.08,10.09c-2.94,2.45-6.3,4.1-10.09,4.94c-3.79,0.85-7.68,1.27-11.69,1.27
				c-6.95,0-12.65-0.85-17.1-2.54c-4.46-1.69-7.93-4.52-10.42-8.48c-2.49-3.96-4.21-9.08-5.14-15.36s-1.4-13.87-1.4-22.78
				c0-9.08,0.55-16.79,1.67-23.11c1.11-6.32,3.01-11.44,5.68-15.36c2.67-3.92,6.19-6.75,10.55-8.48c4.36-1.74,9.75-2.61,16.17-2.61
				c5.61,0,10.38,0.71,14.29,2.14c3.92,1.43,7.1,3.45,9.55,6.08c2.45,2.63,4.23,5.79,5.34,9.49c1.11,3.7,1.67,7.86,1.67,12.49v6.01
				h-24.05v-5.34C529.76,1375.74,529.22,1372.04,528.16,1370.08z"/>
			<path class="st0" d="M562.36,1377.09c1.16-6.28,3.07-11.4,5.75-15.36c2.67-3.96,6.19-6.86,10.55-8.68
				c4.36-1.82,9.71-2.74,16.03-2.74c6.32,0,11.67,0.91,16.03,2.74c4.36,1.83,7.88,4.72,10.55,8.68c2.67,3.96,4.59,9.08,5.75,15.36
				c1.16,6.28,1.74,13.87,1.74,22.78c0,8.91-0.58,16.5-1.74,22.78c-1.16,6.28-3.07,11.4-5.75,15.36c-2.67,3.96-6.19,6.79-10.55,8.48
				c-4.36,1.69-9.71,2.54-16.03,2.54c-6.33,0-11.67-0.85-16.03-2.54c-4.36-1.69-7.88-4.52-10.55-8.48
				c-2.67-3.96-4.59-9.08-5.75-15.36c-1.16-6.28-1.74-13.87-1.74-22.78C560.62,1390.97,561.2,1383.37,562.36,1377.09z
				 M586.54,1415.84c0.18,4.23,0.55,7.59,1.14,10.09c0.58,2.49,1.42,4.23,2.54,5.21c1.11,0.98,2.61,1.47,4.48,1.47
				s3.36-0.49,4.48-1.47c1.11-0.98,1.96-2.72,2.54-5.21c0.58-2.49,0.96-5.86,1.14-10.09c0.18-4.23,0.27-9.55,0.27-15.96
				c0-6.41-0.09-11.73-0.27-15.97c-0.18-4.23-0.56-7.59-1.14-10.09c-0.58-2.49-1.43-4.23-2.54-5.21c-1.12-0.98-2.61-1.47-4.48-1.47
				s-3.36,0.49-4.48,1.47c-1.12,0.98-1.96,2.72-2.54,5.21c-0.58,2.49-0.96,5.86-1.14,10.09c-0.18,4.23-0.27,9.55-0.27,15.97
				C586.27,1406.28,586.36,1411.61,586.54,1415.84z"/>
			<path class="st0" d="M665.49,1352.18l16.03,58.78h0.27v-58.78h23.25v95.39h-27.25l-16.57-58.92h-0.27v58.92h-23.25v-95.39H665.49
				z"/>
			<path class="st0" d="M254.15,1490.28l23.25,95.39h-26.45l-2.54-16.7h-19.77l-2.54,16.7h-26.05l22.85-95.39H254.15z
				 M238.38,1509.79l-6.81,40.48h13.89l-6.81-40.48H238.38z"/>
			<path class="st0" d="M318.68,1515.53c0-2.85-0.58-5.28-1.74-7.28c-1.16-2-2.94-3.01-5.34-3.01c-2.67,0-4.63,0.87-5.88,2.61
				c-1.25,1.74-1.87,3.67-1.87,5.81c0,3.12,1,5.59,3.01,7.42c2,1.83,4.52,3.41,7.55,4.74c3.03,1.34,6.28,2.7,9.75,4.08
				c3.47,1.38,6.72,3.19,9.75,5.41c3.03,2.23,5.54,5.14,7.55,8.75c2,3.61,3.01,8.31,3.01,14.09c0,10.15-2.9,17.52-8.68,22.11
				c-5.79,4.59-14.16,6.88-25.12,6.88c-5.17,0-9.73-0.42-13.69-1.27c-3.96-0.85-7.3-2.31-10.02-4.41c-2.72-2.09-4.79-4.83-6.21-8.22
				c-1.43-3.38-2.14-7.57-2.14-12.56v-3.34h24.05v2.27c0,4.1,0.75,6.97,2.27,8.62c1.51,1.65,3.47,2.47,5.88,2.47
				c2.58,0,4.56-0.89,5.95-2.67c1.38-1.78,2.07-3.96,2.07-6.55c0-3.12-0.96-5.59-2.87-7.41c-1.92-1.83-4.32-3.38-7.21-4.68
				c-2.9-1.29-6.04-2.6-9.42-3.94c-3.39-1.34-6.53-3.07-9.42-5.21c-2.9-2.14-5.3-4.94-7.21-8.42c-1.92-3.47-2.87-8.02-2.87-13.63
				c0-9.71,2.58-17.1,7.75-22.18c5.16-5.08,13-7.62,23.51-7.62c10.87,0,18.72,2.34,23.58,7.01c4.85,4.68,7.28,12.14,7.28,22.38
				h-23.25V1515.53z"/>
			<path class="st0" d="M377.19,1490.28v95.39h-24.85v-95.39H377.19z"/>
			<path class="st0" d="M434.91,1490.28l23.25,95.39H431.7l-2.54-16.7h-19.77l-2.54,16.7H380.8l22.85-95.39H434.91z M419.14,1509.79
				l-6.81,40.48h13.89l-6.81-40.48H419.14z"/>
		</g>
	</g>
	<g>
		<path class="st0" d="M85.51,1479.24c0.01-0.11,0.03-0.22,0.04-0.33c1.02-10.14,7.92-18.73,17.68-21.67l18.74-5.66
			c-1.9-31.99-11.53-61.9-27.06-87.88l-19.38,5.85c-9.24,2.78-19.17-0.37-25.27-7.84c-0.07-0.09-0.14-0.17-0.2-0.25
			c-6.12-7.46-7.25-17.82-2.69-26.32l9.38-17.48c-22.91-20.31-50.65-35.3-81.27-43.03l-9.44,17.6
			c-4.36,8.13-13.21,12.81-22.39,11.84c-0.1-0.01-0.2-0.02-0.3-0.03c-9.09-0.95-16.72-7.27-19.36-16.02l-5.76-19.07
			c-32.04,1.53-62.05,10.81-88.19,26.02l5.11,16.95c2.92,9.67-0.46,20.05-8.35,26.36c-0.09,0.07-0.18,0.14-0.27,0.22
			c-7.72,6.2-18.35,7.29-27.07,2.62l-15.91-8.53c-20.59,22.68-35.9,50.24-43.99,80.74l14.59,7.83c9.42,5.05,14.73,15.31,13.69,25.94
			c-0.01,0.12-0.03,0.24-0.04,0.36c-1.02,10.7-8.27,19.78-18.56,22.89l-15.81,4.77c1.9,31.99,11.53,61.9,27.06,87.88l18.24-5.5
			c9.28-2.8,19.28,0.29,25.49,7.73c0.1,0.12,0.2,0.23,0.3,0.35c6.39,7.6,7.64,18.27,2.95,27.02l-8.82,16.44
			c22.91,20.31,50.65,35.3,81.27,43.03l10.04-18.72c4.21-7.85,12.72-12.43,21.59-11.59c0.1,0.01,0.2,0.02,0.3,0.03
			c8.99,0.83,16.58,7.02,19.19,15.67l6.12,20.29c32.04-1.53,62.05-10.81,88.2-26.02l-6-19.88c-2.75-9.14,0.41-18.96,7.83-24.96
			c0.08-0.07,0.17-0.13,0.25-0.2c7.33-5.95,17.48-7.02,25.81-2.55l18.59,9.98c20.6-22.68,35.91-50.24,44-80.75l-17.3-9.28
			C89.53,1499.25,84.47,1489.42,85.51,1479.24z M-72.3,1598.4c-74.58,0-135.05-60.47-135.05-135.05
			c0-74.59,60.47-135.06,135.05-135.06c74.59,0,135.06,60.47,135.06,135.06C62.76,1537.93,2.29,1598.4-72.3,1598.4z"/>
	</g>
	<g>
		<polygon class="st0" points="-184.06,1557.08 -112.79,1316.66 -67.09,1330.21 -142.38,1584.18 		"/>
		<polygon class="st0" points="39.47,1557.08 -31.8,1316.66 -77.5,1330.21 -1.51,1586.54 		"/>
		
			<rect x="-96.13" y="1415.91" transform="matrix(6.123234e-17 -1 1 6.123234e-17 -1557.0431 1412.4525)" class="st0" width="47.66" height="137.67"/>
	</g>
</g>
<g>
	<g>
		<g>
			<path d="M631.25,260.02c4.72,0,8.75,0.62,12.09,1.87c3.34,1.25,6.06,3.01,8.15,5.28c2.09,2.27,3.61,4.97,4.54,8.08
				c0.94,3.12,1.4,6.5,1.4,10.15c0,6.41-1.29,11.58-3.87,15.5c-2.58,3.92-6.73,6.32-12.42,7.21v0.27
				c5.97,0.53,10.06,2.63,12.29,6.28c2.23,3.65,3.34,8.68,3.34,15.1v8.15c0,1.25,0,2.54,0,3.87s0.04,2.61,0.13,3.81
				c0.09,1.2,0.22,2.29,0.4,3.27c0.18,0.98,0.4,1.74,0.67,2.27c0.35,0.53,0.71,1.05,1.07,1.54c0.35,0.49,0.94,0.96,1.74,1.4v1.34
				h-26.45c-0.62-1.25-1.09-2.72-1.4-4.41c-0.31-1.69-0.53-3.38-0.67-5.08c-0.13-1.69-0.22-3.32-0.27-4.88
				c-0.05-1.56-0.07-2.83-0.07-3.81v-6.41c0-2.67-0.13-4.9-0.4-6.68c-0.27-1.78-0.73-3.18-1.4-4.21c-0.67-1.02-1.52-1.74-2.54-2.14
				c-1.03-0.4-2.29-0.6-3.81-0.6h-6.55v38.21h-24.85v-95.39H631.25z M622.16,300.37c3.56,0,6.19-1.05,7.88-3.14
				c1.69-2.09,2.54-4.83,2.54-8.22c0-4.01-0.83-6.86-2.47-8.55c-1.65-1.69-4.34-2.54-8.08-2.54h-4.81v22.44H622.16z"/>
			<path d="M692.84,328.82c0,4.63,0.67,7.73,2,9.29c1.34,1.56,3.16,2.34,5.48,2.34c2.31,0,4.14-0.78,5.48-2.34
				c1.34-1.56,2-4.65,2-9.29v-68.8h24.85v62.52c0,6.68-0.71,12.25-2.14,16.7c-1.43,4.45-3.5,8.02-6.21,10.69
				c-2.72,2.67-6.08,4.5-10.09,5.48c-4.01,0.98-8.64,1.47-13.89,1.47c-5.17,0-9.78-0.49-13.83-1.47c-4.05-0.98-7.44-2.81-10.15-5.48
				c-2.72-2.67-4.79-6.23-6.21-10.69c-1.43-4.45-2.14-10.02-2.14-16.7v-62.52h24.85V328.82z"/>
			<path d="M780.48,285.27c0-2.85-0.58-5.28-1.74-7.28c-1.16-2-2.94-3.01-5.34-3.01c-2.67,0-4.63,0.87-5.88,2.61
				c-1.25,1.74-1.87,3.67-1.87,5.81c0,3.12,1,5.59,3.01,7.42c2,1.83,4.52,3.41,7.55,4.74c3.03,1.34,6.28,2.7,9.75,4.08
				c3.47,1.38,6.72,3.19,9.75,5.41c3.03,2.23,5.54,5.14,7.55,8.75c2,3.61,3.01,8.31,3.01,14.09c0,10.15-2.9,17.52-8.68,22.11
				c-5.79,4.59-14.16,6.88-25.12,6.88c-5.17,0-9.73-0.42-13.69-1.27c-3.96-0.85-7.3-2.31-10.02-4.41c-2.72-2.09-4.79-4.83-6.21-8.22
				c-1.43-3.38-2.14-7.57-2.14-12.56v-3.34h24.05v2.27c0,4.1,0.75,6.97,2.27,8.62c1.51,1.65,3.47,2.47,5.88,2.47
				c2.58,0,4.56-0.89,5.95-2.67c1.38-1.78,2.07-3.96,2.07-6.55c0-3.12-0.96-5.59-2.87-7.41c-1.92-1.83-4.32-3.38-7.21-4.68
				c-2.9-1.29-6.04-2.6-9.42-3.94c-3.39-1.34-6.53-3.07-9.42-5.21c-2.9-2.14-5.3-4.94-7.21-8.42c-1.92-3.47-2.87-8.02-2.87-13.63
				c0-9.71,2.58-17.1,7.75-22.18c5.16-5.08,13-7.62,23.51-7.62c10.87,0,18.72,2.34,23.58,7.01c4.85,4.68,7.28,12.14,7.28,22.38
				h-23.25V285.27z"/>
			<path d="M809.2,281.13v-21.11h61.99v21.11h-18.7v74.28h-24.85v-74.28H809.2z"/>
			<path d="M913.27,277.92c-1.07-1.96-2.81-2.94-5.21-2.94c-1.87,0-3.36,0.49-4.48,1.47c-1.12,0.98-1.96,2.72-2.54,5.21
				c-0.58,2.49-0.96,5.86-1.14,10.09c-0.18,4.23-0.27,9.55-0.27,15.97c0,6.41,0.09,11.74,0.27,15.96c0.18,4.23,0.55,7.59,1.14,10.09
				c0.58,2.49,1.42,4.23,2.54,5.21c1.11,0.98,2.61,1.47,4.48,1.47c1.51,0,2.76-0.38,3.74-1.14c0.98-0.76,1.74-2.02,2.27-3.81
				c0.53-1.78,0.91-4.16,1.14-7.15c0.22-2.98,0.33-6.75,0.33-11.29h24.05v7.08c0,6.68-0.89,12.16-2.67,16.43
				c-1.78,4.27-4.14,7.64-7.08,10.09c-2.94,2.45-6.3,4.1-10.09,4.94c-3.79,0.85-7.68,1.27-11.69,1.27c-6.95,0-12.65-0.85-17.1-2.54
				c-4.46-1.69-7.93-4.52-10.42-8.48c-2.49-3.96-4.21-9.08-5.14-15.36s-1.4-13.87-1.4-22.78c0-9.08,0.55-16.79,1.67-23.11
				c1.11-6.32,3.01-11.44,5.68-15.36c2.67-3.92,6.19-6.75,10.55-8.48c4.36-1.74,9.75-2.61,16.17-2.61c5.61,0,10.38,0.71,14.29,2.14
				c3.92,1.43,7.1,3.45,9.55,6.08c2.45,2.63,4.23,5.79,5.34,9.49c1.11,3.7,1.67,7.86,1.67,12.49v6.01h-24.05v-5.34
				C914.87,283.58,914.34,279.88,913.27,277.92z"/>
			<path d="M947.47,284.94c1.16-6.28,3.07-11.4,5.75-15.36c2.67-3.96,6.19-6.86,10.55-8.68c4.36-1.82,9.71-2.74,16.03-2.74
				c6.32,0,11.67,0.91,16.03,2.74c4.36,1.83,7.88,4.72,10.55,8.68c2.67,3.96,4.59,9.08,5.75,15.36c1.16,6.28,1.74,13.87,1.74,22.78
				c0,8.91-0.58,16.5-1.74,22.78c-1.16,6.28-3.07,11.4-5.75,15.36c-2.67,3.96-6.19,6.79-10.55,8.48c-4.36,1.69-9.71,2.54-16.03,2.54
				c-6.33,0-11.67-0.85-16.03-2.54c-4.36-1.69-7.88-4.52-10.55-8.48c-2.67-3.96-4.59-9.08-5.75-15.36
				c-1.16-6.28-1.74-13.87-1.74-22.78C945.73,298.81,946.31,291.21,947.47,284.94z M971.65,323.68c0.18,4.23,0.55,7.59,1.14,10.09
				c0.58,2.49,1.42,4.23,2.54,5.21c1.11,0.98,2.61,1.47,4.48,1.47s3.36-0.49,4.48-1.47c1.11-0.98,1.96-2.72,2.54-5.21
				c0.58-2.49,0.96-5.86,1.14-10.09c0.18-4.23,0.27-9.55,0.27-15.96c0-6.41-0.09-11.73-0.27-15.97c-0.18-4.23-0.56-7.59-1.14-10.09
				c-0.58-2.49-1.43-4.23-2.54-5.21c-1.12-0.98-2.61-1.47-4.48-1.47s-3.36,0.49-4.48,1.47c-1.12,0.98-1.96,2.72-2.54,5.21
				c-0.58,2.49-0.96,5.86-1.14,10.09c-0.18,4.23-0.27,9.55-0.27,15.97C971.38,314.13,971.47,319.45,971.65,323.68z"/>
			<path d="M1050.61,260.02l16.03,58.78h0.27v-58.78h23.25v95.39h-27.25l-16.57-58.92h-0.27v58.92h-23.25v-95.39H1050.61z"/>
			<path d="M639.26,398.12l23.25,95.39h-26.45l-2.54-16.7h-19.77l-2.54,16.7h-26.05L608,398.12H639.26z M623.5,417.63l-6.81,40.48
				h13.89l-6.81-40.48H623.5z"/>
			<path d="M703.79,423.37c0-2.85-0.58-5.28-1.74-7.28c-1.16-2-2.94-3.01-5.34-3.01c-2.67,0-4.63,0.87-5.88,2.61
				c-1.25,1.74-1.87,3.67-1.87,5.81c0,3.12,1,5.59,3.01,7.42c2,1.83,4.52,3.41,7.55,4.74c3.03,1.34,6.28,2.7,9.75,4.08
				c3.47,1.38,6.72,3.19,9.75,5.41c3.03,2.23,5.54,5.14,7.55,8.75c2,3.61,3.01,8.31,3.01,14.09c0,10.15-2.9,17.52-8.68,22.11
				c-5.79,4.59-14.16,6.88-25.12,6.88c-5.17,0-9.73-0.42-13.69-1.27c-3.96-0.85-7.3-2.31-10.02-4.41c-2.72-2.09-4.79-4.83-6.21-8.22
				c-1.43-3.38-2.14-7.57-2.14-12.56v-3.34h24.05v2.27c0,4.1,0.75,6.97,2.27,8.62c1.51,1.65,3.47,2.47,5.88,2.47
				c2.58,0,4.56-0.89,5.95-2.67c1.38-1.78,2.07-3.96,2.07-6.55c0-3.12-0.96-5.59-2.87-7.41c-1.92-1.83-4.32-3.38-7.21-4.68
				c-2.9-1.29-6.04-2.6-9.42-3.94c-3.39-1.34-6.53-3.07-9.42-5.21c-2.9-2.14-5.3-4.94-7.21-8.42c-1.92-3.47-2.87-8.02-2.87-13.63
				c0-9.71,2.58-17.1,7.75-22.18c5.16-5.08,13-7.62,23.51-7.62c10.87,0,18.72,2.34,23.58,7.01c4.85,4.68,7.28,12.14,7.28,22.38
				h-23.25V423.37z"/>
			<path d="M762.31,398.12v95.39h-24.85v-95.39H762.31z"/>
			<path d="M820.02,398.12l23.25,95.39h-26.45l-2.54-16.7H794.5l-2.54,16.7h-26.05l22.85-95.39H820.02z M804.26,417.63l-6.81,40.48
				h13.89l-6.81-40.48H804.26z"/>
		</g>
	</g>
	<g>
		<path d="M470.62,387.08c0.01-0.11,0.03-0.22,0.04-0.33c1.02-10.14,7.92-18.73,17.68-21.67l18.74-5.66
			c-1.9-31.99-11.53-61.9-27.06-87.88l-19.38,5.85c-9.24,2.78-19.17-0.37-25.27-7.84c-0.07-0.09-0.14-0.17-0.2-0.25
			c-6.12-7.46-7.25-17.82-2.69-26.32l9.38-17.48c-22.91-20.31-50.65-35.3-81.27-43.03l-9.44,17.6
			c-4.36,8.13-13.21,12.81-22.39,11.84c-0.1-0.01-0.2-0.02-0.3-0.03c-9.09-0.95-16.72-7.27-19.36-16.02l-5.76-19.07
			c-32.04,1.53-62.05,10.81-88.19,26.02l5.11,16.95c2.92,9.67-0.46,20.05-8.35,26.36c-0.09,0.07-0.18,0.14-0.27,0.22
			c-7.72,6.2-18.35,7.29-27.07,2.62l-15.91-8.53c-20.59,22.68-35.9,50.24-43.99,80.74l14.59,7.83c9.42,5.05,14.73,15.31,13.69,25.94
			c-0.01,0.12-0.03,0.24-0.04,0.36c-1.02,10.7-8.27,19.78-18.56,22.89l-15.81,4.77c1.9,31.99,11.53,61.9,27.06,87.88l18.24-5.5
			c9.28-2.8,19.28,0.29,25.49,7.73c0.1,0.12,0.2,0.23,0.3,0.35c6.39,7.6,7.64,18.27,2.95,27.02l-8.82,16.44
			c22.91,20.31,50.65,35.3,81.27,43.03l10.04-18.72c4.21-7.85,12.72-12.43,21.59-11.59c0.1,0.01,0.2,0.02,0.3,0.03
			c8.99,0.83,16.58,7.02,19.19,15.67l6.12,20.29c32.04-1.53,62.05-10.81,88.2-26.02l-6-19.88c-2.75-9.14,0.41-18.96,7.83-24.96
			c0.08-0.07,0.17-0.13,0.25-0.2c7.33-5.95,17.48-7.02,25.81-2.55l18.59,9.98c20.6-22.68,35.91-50.24,44-80.75l-17.3-9.28
			C474.64,407.09,469.58,397.26,470.62,387.08z M312.81,506.24c-74.58,0-135.05-60.47-135.05-135.05
			c0-74.59,60.47-135.06,135.05-135.06c74.59,0,135.06,60.47,135.06,135.06C447.87,445.77,387.4,506.24,312.81,506.24z"/>
	</g>
	<g>
		<polygon points="201.06,464.92 272.33,224.51 318.02,238.05 242.73,492.03 		"/>
		<polygon points="424.58,464.92 353.31,224.51 307.62,238.05 383.6,494.38 		"/>
		
			<rect x="288.99" y="323.76" transform="matrix(6.123234e-17 -1 1 6.123234e-17 -79.7724 705.4093)" width="47.66" height="137.67"/>
	</g>
</g>
</svg>
